<svg id="图层_1" data-name="图层 1" xmlns="http://www.w3.org/2000/svg" viewBox="0 0 1920.63 440"><defs><style>.cls-1{fill:#ffa82e;}.cls-2,.cls-5{fill:#3eaceb;}.cls-3{fill:#52b4ed;}.cls-4{fill:#fff;}.cls-5,.cls-6{opacity:0.5;}</style></defs><title>BHD背景电线4</title><ellipse class="cls-1" cx="952.65" cy="291.5" rx="8.5" ry="5.5"/><path class="cls-2" d="M952.5,780.5c-5,0-9-2.69-9-6s4-6,9-6,9,2.69,9,6S957.46,780.5,952.5,780.5Zm0-11c-4.41,0-8,2.24-8,5s3.59,5,8,5,8-2.24,8-5S956.91,769.5,952.5,769.5Z" transform="translate(0.15 -483)"/><ellipse class="cls-1" cx="952.65" cy="291.5" rx="8.5" ry="5.5"/><path class="cls-2" d="M952.5,780.5c-5,0-9-2.69-9-6s4-6,9-6,9,2.69,9,6S957.46,780.5,952.5,780.5Zm0-11c-4.41,0-8,2.24-8,5s3.59,5,8,5,8-2.24,8-5S956.91,769.5,952.5,769.5Z" transform="translate(0.15 -483)"/><ellipse class="cls-2" cx="952.65" cy="291.5" rx="8.5" ry="5.5"/><ellipse class="cls-1" cx="743.65" cy="140.5" rx="8.5" ry="5.5"/><path class="cls-2" d="M743.5,629.5c-5,0-9-2.69-9-6s4-6,9-6,9,2.69,9,6S748.46,629.5,743.5,629.5Zm0-11c-4.41,0-8,2.24-8,5s3.59,5,8,5,8-2.24,8-5S747.91,618.5,743.5,618.5Z" transform="translate(0.15 -483)"/><ellipse class="cls-2" cx="743.65" cy="140.5" rx="8.5" ry="5.5"/><ellipse class="cls-2" cx="838.65" cy="134.5" rx="6.5" ry="5.5"/><ellipse class="cls-3" cx="607.65" cy="81.5" rx="7.5" ry="5.5"/><ellipse class="cls-2" cx="537.65" cy="87.5" rx="7.5" ry="5.5"/><ellipse class="cls-2" cx="602.65" cy="253" rx="9.5" ry="6"/><ellipse class="cls-2" cx="231.65" cy="321" rx="9.5" ry="6"/><ellipse class="cls-2" cx="159.15" cy="169" rx="8" ry="6"/><ellipse class="cls-2" cx="115.15" cy="148" rx="8" ry="6"/><ellipse class="cls-2" cx="373.15" cy="91" rx="7" ry="6"/><ellipse class="cls-2" cx="473.65" cy="81.5" rx="7.5" ry="5.5"/><ellipse class="cls-2" cx="854.65" cy="431.5" rx="8.5" ry="5.5"/><ellipse class="cls-1" cx="1321.65" cy="389.5" rx="8.5" ry="5.5"/><path class="cls-2" d="M1321.5,878.5c-5,0-9-2.69-9-6s4-6,9-6,9,2.69,9,6S1326.46,878.5,1321.5,878.5Zm0-11c-4.41,0-8,2.24-8,5s3.59,5,8,5,8-2.24,8-5S1325.91,867.5,1321.5,867.5Z" transform="translate(0.15 -483)"/><ellipse class="cls-2" cx="1321.65" cy="389.5" rx="8.5" ry="5.5"/><ellipse class="cls-2" cx="1733.65" cy="351.5" rx="8.5" ry="5.5"/><ellipse class="cls-2" cx="1568.65" cy="191.5" rx="8.5" ry="5.5"/><ellipse class="cls-2" cx="1477.65" cy="103.5" rx="8.5" ry="5.5"/><ellipse class="cls-2" cx="1691.65" cy="93" rx="8.5" ry="5"/><ellipse class="cls-2" cx="1892.65" cy="83" rx="7.5" ry="5"/><ellipse class="cls-2" cx="1838.46" cy="658.3" rx="5.88" ry="10.66" transform="translate(823.1 1843.25) rotate(-78.37)"/><ellipse class="cls-2" cx="1249.65" cy="115.5" rx="8.5" ry="5.5"/><ellipse class="cls-1" cx="1210.65" cy="105.5" rx="8.5" ry="5.5"/><path class="cls-2" d="M1210.5,594.5c-5,0-9-2.69-9-6s4-6,9-6,9,2.69,9,6S1215.46,594.5,1210.5,594.5Zm0-11c-4.41,0-8,2.24-8,5s3.59,5,8,5,8-2.24,8-5S1214.91,583.5,1210.5,583.5Z" transform="translate(0.15 -483)"/><ellipse class="cls-2" cx="1210.65" cy="105.5" rx="8.5" ry="5.5"/><ellipse class="cls-2" cx="1035.65" cy="85.5" rx="8.5" ry="5.5"/><ellipse class="cls-2" cx="1315.65" cy="148.5" rx="8.5" ry="5.5"/><rect class="cls-2" x="938.42" y="701.5" width="390.15" height="2" transform="translate(-178.47 -18.57) rotate(-21.51)"/><rect class="cls-2" x="1317" y="630.96" width="2" height="241.07" transform="translate(-18.15 -449.96) rotate(-1.43)"/><rect class="cls-2" x="1135.5" y="632.1" width="2" height="381.79" transform="translate(49.5 1227.17) rotate(-75.13)"/><rect class="cls-2" x="1320.13" y="852" width="413.75" height="2" transform="translate(-71.69 -339.27) rotate(-5.27)"/><rect class="cls-2" x="1523" y="500.16" width="2" height="464.69" transform="translate(199.47 1300.39) rotate(-64.1)"/><rect class="cls-2" x="1649.5" y="639.08" width="2" height="229.84" transform="translate(-39.64 931) rotate(-45.88)"/><rect class="cls-2" x="1441" y="523.69" width="2" height="257.61" transform="translate(558.11 1482.36) rotate(-80.39)"/><rect class="cls-2" x="1743.5" y="534" width="2" height="360" transform="translate(660.83 1773.21) rotate(-77.16)"/><rect class="cls-2" x="1732.66" y="825" width="187.68" height="2" transform="matrix(1, -0.08, 0.08, 1, -63.44, -324.79)"/><rect class="cls-2" x="1878" y="633.73" width="2" height="93.54" transform="translate(378.59 1517.37) rotate(-61.24)"/><rect class="cls-2" x="1878.5" y="624.72" width="2" height="82.57" transform="translate(862.05 1897.81) rotate(-78.83)"/><rect class="cls-2" x="1838.89" y="654" width="81.22" height="2" transform="translate(-43.29 -341.67) rotate(-4.26)"/><rect class="cls-2" x="1568.76" y="665" width="270.47" height="2" transform="translate(-36.51 -380.29) rotate(-3.42)"/><rect class="cls-2" x="1764" y="532.4" width="2" height="169.2" transform="translate(370.06 1378.85) rotate(-61.01)"/><rect class="cls-2" x="1657" y="437.45" width="2" height="369.09" transform="translate(724.66 1643.81) rotate(-78.75)"/><rect class="cls-2" x="1522" y="566.34" width="2" height="127.31" transform="translate(15.15 812.11) rotate(-46.27)"/><rect class="cls-2" x="1476.88" y="580" width="214.23" height="2" transform="translate(-25.34 -408.12) rotate(-2.69)"/><rect class="cls-2" x="1804.5" y="480.18" width="2" height="232.64" transform="translate(900.29 1785.61) rotate(-79.85)"/><rect class="cls-2" x="1690.92" y="569" width="201.16" height="2" transform="translate(-21.24 -410.8) rotate(-2.3)"/><rect class="cls-2" x="1905" y="556.13" width="2" height="29.73" transform="translate(727.35 1690.91) rotate(-70.35)"/><rect class="cls-2" x="1891.78" y="562.5" width="28.44" height="2" transform="translate(-69.23 -139.17) rotate(-10.12)"/><rect class="cls-2" x="1248.84" y="591" width="228.32" height="2" transform="translate(-29.16 -410.33) rotate(-3.02)"/><rect class="cls-2" x="1281.5" y="578.05" width="2" height="72.9" transform="translate(154.14 996.88) rotate(-63.08)"/><rect class="cls-2" x="1408.5" y="472.04" width="2" height="327.93" transform="translate(464.3 1376.73) rotate(-76.6)"/><rect class="cls-2" x="1229" y="572.38" width="2" height="41.23" transform="translate(356.53 1159.45) rotate(-75.96)"/><rect class="cls-2" x="1210" y="586" width="270.01" height="2" transform="translate(-4.4 -472.47) rotate(-0.45)"/><rect class="cls-2" x="1174" y="456" width="2" height="287" transform="translate(332.34 1131.24) rotate(-77.32)"/><rect class="cls-2" x="1121.5" y="489.93" width="2" height="176.14" transform="translate(420.93 1144.61) rotate(-83.48)"/><rect class="cls-2" x="882.45" y="670" width="222.09" height="2" transform="translate(-0.17 858.54) rotate(-68.04)"/><rect class="cls-2" x="846.5" y="569.58" width="2" height="257.84" transform="translate(-214.87 493.4) rotate(-54.15)"/><rect class="cls-2" x="742.91" y="619" width="95.19" height="2" transform="translate(-37.34 -431.98) rotate(-3.61)"/><line class="cls-4" x1="1036.15" y1="84" x2="743.15" y2="140"/><rect class="cls-2" x="740.35" y="594" width="298.3" height="2" transform="matrix(0.98, -0.19, 0.19, 0.98, -95.63, -305.7)"/><rect class="cls-2" x="674" y="519.38" width="2" height="148.25" transform="translate(-137.97 493.53) rotate(-66.55)"/><rect class="cls-2" x="721.5" y="472.39" width="2" height="237.23" transform="translate(-17.3 677) rotate(-76.84)"/><rect class="cls-2" x="607" y="455.31" width="2" height="276.37" transform="translate(-101.47 577.78) rotate(-77.67)"/><rect class="cls-2" x="582.15" y="678.5" width="180.69" height="2" transform="translate(-277.08 86.95) rotate(-38.72)"/><rect class="cls-2" x="536.5" y="542.5" width="2" height="215" transform="translate(-282.35 -30.5) rotate(-36.87)"/><rect class="cls-2" x="777" y="577.98" width="2" height="354.05" transform="translate(-56 964.47) rotate(-83.84)"/><rect class="cls-2" x="818.34" y="843" width="170.32" height="2" transform="translate(-304.65 623.03) rotate(-55.29)"/><rect class="cls-2" x="854.06" y="892" width="469.88" height="2" transform="matrix(1, -0.09, 0.09, 1, -75.29, -382.13)"/><rect class="cls-2" x="726.5" y="667.15" width="2" height="312.71" transform="translate(-364.97 457.09) rotate(-54.63)"/><polygon class="cls-5" points="709.23 440 709.06 438 855.06 430 855.23 432 709.23 440"/><path class="cls-2" d="M434,871h0a1,1,0,0,1,.15-1.41L602.37,734.22l1.26,1.56L435.41,871.15A1,1,0,0,1,434,871Z" transform="translate(0.15 -483)"/><rect class="cls-2" x="227.83" y="768.5" width="378.35" height="2" transform="translate(-133.01 -394.19) rotate(-10.49)"/><polygon class="cls-5" points="254.27 364.49 230.27 321.49 232.02 320.51 256.02 363.51 254.27 364.49"/><polygon class="cls-5" points="166.5 344.94 165.79 343.06 230.79 319.06 231.5 320.94 166.5 344.94"/><rect class="cls-2" x="182.29" y="683" width="339.42" height="2" transform="translate(-378.45 -39.82) rotate(-44.53)"/><rect class="cls-2" x="194" y="643.86" width="2" height="167.29" transform="translate(-293.98 -328.24) rotate(-25.49)"/><rect class="cls-2" x="153.09" y="607.5" width="325.83" height="2" transform="translate(-150.87 -376.52) rotate(-15.49)"/><rect class="cls-2" x="152.11" y="612" width="227.77" height="2" transform="translate(-193.63 -354.9) rotate(-20.02)"/><rect class="cls-2" x="372.8" y="568.5" width="100.4" height="2" transform="translate(-49.3 -442.7) rotate(-5.15)"/><rect class="cls-2" x="539.5" y="494.49" width="2" height="137.01" transform="translate(-30.18 612.22) rotate(-89.16)"/><rect class="cls-2" x="112.1" y="600.5" width="263.8" height="2" transform="translate(-119.85 -418.95) rotate(-12.03)"/><rect class="cls-2" x="136" y="615.68" width="2" height="49.65" transform="translate(-493.95 -17.8) rotate(-62.4)"/><rect class="cls-2" x="-4.33" y="680.5" width="168.66" height="2" transform="translate(-233.14 -411.98) rotate(-20.47)"/><rect class="cls-2" x="0.87" y="655.5" width="158.26" height="2" transform="translate(-36.92 -477.41) rotate(-3.25)"/><rect class="cls-2" x="-0.62" y="636.5" width="116.25" height="2" transform="translate(-92.31 -467.77) rotate(-8.4)"/><g class="cls-6"><path class="cls-2" d="M1920.12,534,1773,516.92c-.06-2.72-3.39-4.92-7.49-4.92-3.78,0-6.9,1.87-7.42,4.29l-151.41,6.35c-1-2.1-4.28-3.64-8.17-3.64a12.63,12.63,0,0,0-5.45,1.16l-53.13-29a4.07,4.07,0,0,0,1.08-2.68c0-3-3.81-5.5-8.5-5.5s-8.5,2.46-8.5,5.5,3.81,5.5,8.5,5.5a11.32,11.32,0,0,0,5.74-1.45l53,28.89a4.08,4.08,0,0,0-.4.44L1392,491.37c-.11-3-3.86-5.37-8.49-5.37s-8.5,2.46-8.5,5.5,3.81,5.5,8.5,5.5a12.35,12.35,0,0,0,3.29-.43l28.36,30.66a7.07,7.07,0,0,0-2.07,1.59l-181.14-30.66a3.68,3.68,0,0,0,.06-.66c0-3-3.36-5.5-7.5-5.5s-7.5,2.46-7.5,5.5a5,5,0,0,0,2.43,4l-6.38,5.59a9.35,9.35,0,0,0-4.55-1.13c-4.14,0-7.5,2.46-7.5,5.5s3.36,5.5,7.5,5.5,7.5-2.46,7.5-5.5a4.56,4.56,0,0,0-1.34-3.13l6.72-5.87a9.17,9.17,0,0,0,1.79.41l-13.92,83.53-145-80.56a4.25,4.25,0,0,0,.75-2.38c0-3-3.36-5.5-7.5-5.5s-7.5,2.46-7.5,5.5a1.64,1.64,0,0,0,0,.22L890.78,538.5a8.42,8.42,0,0,0-6.28-2.5,8,8,0,0,0-6.76,3.13L710,516.09c-.29-2.85-3.52-5.09-7.47-5.09-4.14,0-7.5,2.46-7.5,5.5a4.23,4.23,0,0,0,.38,1.72l-88.83,44.89.9,1.78,89.12-45A8.69,8.69,0,0,0,702.5,522a9.33,9.33,0,0,0,4.45-1.08L837.4,617.8l.6-.8.33.94,192.12-67.58a10.11,10.11,0,0,0,3.55,1.4V568h2V552l.5,0a10.29,10.29,0,0,0,7.08-2.46L1209.77,589l.23-1,.26,1,202.65-55c1.39,1.8,4.26,3,7.59,3a12.11,12.11,0,0,0,3.7-.56l52.11,50.28,1.38-1.44-51.5-49.7a6.23,6.23,0,0,0,2.27-2.16L1690.84,577l.16-1,.49-.87L1605.34,527a5.53,5.53,0,0,0,.81-.79L1891.86,567l.14-1,.36-.93L1772.71,518.9,1919.88,536ZM1765.5,522a9.48,9.48,0,0,0,5.5-1.61l112.43,43.38-274.55-39.23,149.38-6.26C1759.11,520.42,1762,522,1765.5,522Zm-376.7-26.2a6.33,6.33,0,0,0,2.71-2.48l196.09,30.1-159,6.36c-1.12-2.2-4.31-3.78-8.07-3.78a12.39,12.39,0,0,0-3.35.45ZM1053.24,508,1036,541c-4,.16-7.24,2.11-7.85,4.63l-136.25-5.34,158.73-34.67A6.3,6.3,0,0,0,1053.24,508ZM884.5,547c3.77,0,6.87-2,7.41-4.69l136.28,5.35a4.79,4.79,0,0,0,.61,1.16L840.3,615.13l41.47-68.51A10,10,0,0,0,884.5,547ZM709.69,518.07l167.34,23a3.4,3.4,0,0,0,0,.45,5.16,5.16,0,0,0,2.9,4.34l-42.19,69.7L708.62,519.67A5,5,0,0,0,709.69,518.07Zm328.48,23,17-32.39a10.12,10.12,0,0,0,2.37.28,9,9,0,0,0,5.32-1.62l140.36,78-158.41-37.59a3.8,3.8,0,0,0,.23-1.26C1045,543.83,1042.06,541.61,1038.17,541.11Zm173.07,45.52L1225.18,503a7.93,7.93,0,0,0,6-2.92l181,30.63a3.24,3.24,0,0,0-.11.82,3.18,3.18,0,0,0,.06.62Zm474.27-12.56-255.15-42.36,159.94-6.4c1,2.12,4.28,3.69,8.2,3.69a13.07,13.07,0,0,0,4.82-.88Z" transform="translate(0.15 -483)"/><path class="cls-2" d="M465.33,511.74l68.33,61.59L318.71,531.7A5.1,5.1,0,0,0,319,530c0-3.31-3.13-6-7-6s-7,2.69-7,6a5.5,5.5,0,0,0,.09.91L115.8,629.46,104,542.87l-.42,0A5.75,5.75,0,0,0,107,538c0-3.31-3.58-6-8-6s-8,2.69-8,6a4.58,4.58,0,0,0,.09.83L.77,560,1.23,562,91.86,540.7A8.57,8.57,0,0,0,99,544a10.06,10.06,0,0,0,3.06-.46l12,87.59,1-.13.46.89,190.35-99.1A7.2,7.2,0,0,0,312,536a7.71,7.71,0,0,0,4.58-1.47l55.84,40.28,1.16-1.62L319,533.79,536.81,576l.19-1,.67-.74-71-64Z" transform="translate(0.15 -483)"/></g><rect class="cls-2" x="57" y="564.29" width="2" height="115.41" transform="translate(-565.29 99.28) rotate(-81.03)"/><rect class="cls-2" x="115" y="683.93" width="2" height="230.14" transform="translate(-686.4 404.16) rotate(-88.01)"/></svg>