<svg id="图层_1" data-name="图层 1" xmlns="http://www.w3.org/2000/svg" viewBox="0 0 1920.63 440"><defs><style>.cls-1{fill:#ffa82e;}.cls-2,.cls-5{fill:#3eaceb;}.cls-3{fill:#52b4ed;}.cls-4{fill:#fff;}.cls-5,.cls-6{opacity:0.5;}</style></defs><title>BHD背景电线上</title><ellipse class="cls-1" cx="952.65" cy="148.5" rx="8.5" ry="5.5"/><path class="cls-2" d="M961.5,320.5c0,3.3-4,6-9,6s-9-2.7-9-6,4-6,9-6S961.5,317.19,961.5,320.5Zm-1,0c0-2.76-3.59-5-8-5s-8,2.24-8,5,3.59,5,8,5S960.5,323.25,960.5,320.5Z" transform="translate(0.15 -172)"/><ellipse class="cls-1" cx="952.65" cy="148.5" rx="8.5" ry="5.5"/><path class="cls-2" d="M961.5,320.5c0,3.3-4,6-9,6s-9-2.7-9-6,4-6,9-6S961.5,317.19,961.5,320.5Zm-1,0c0-2.76-3.59-5-8-5s-8,2.24-8,5,3.59,5,8,5S960.5,323.25,960.5,320.5Z" transform="translate(0.15 -172)"/><ellipse class="cls-2" cx="952.65" cy="148.5" rx="8.5" ry="5.5"/><ellipse class="cls-1" cx="743.65" cy="299.5" rx="8.5" ry="5.5"/><path class="cls-2" d="M752.5,471.5c0,3.3-4,6-9,6s-9-2.7-9-6,4-6,9-6S752.5,468.19,752.5,471.5Zm-1,0c0-2.76-3.59-5-8-5s-8,2.24-8,5,3.59,5,8,5S751.5,474.25,751.5,471.5Z" transform="translate(0.15 -172)"/><ellipse class="cls-2" cx="743.65" cy="299.5" rx="8.5" ry="5.5"/><ellipse class="cls-2" cx="838.65" cy="305.5" rx="6.5" ry="5.5"/><ellipse class="cls-3" cx="607.65" cy="358.5" rx="7.5" ry="5.5"/><ellipse class="cls-2" cx="537.65" cy="352.5" rx="7.5" ry="5.5"/><ellipse class="cls-2" cx="602.65" cy="187" rx="9.5" ry="6"/><ellipse class="cls-2" cx="231.65" cy="119" rx="9.5" ry="6"/><ellipse class="cls-2" cx="159.15" cy="271" rx="8" ry="6"/><ellipse class="cls-2" cx="115.15" cy="292" rx="8" ry="6"/><ellipse class="cls-2" cx="373.15" cy="349" rx="7" ry="6"/><ellipse class="cls-2" cx="473.65" cy="358.5" rx="7.5" ry="5.5"/><ellipse class="cls-2" cx="854.65" cy="8.5" rx="8.5" ry="5.5"/><ellipse class="cls-1" cx="1321.65" cy="50.5" rx="8.5" ry="5.5"/><path class="cls-2" d="M1330.5,222.5c0,3.3-4,6-9,6s-9-2.7-9-6,4-6,9-6S1330.5,219.19,1330.5,222.5Zm-1,0c0-2.76-3.59-5-8-5s-8,2.24-8,5,3.59,5,8,5S1329.5,225.25,1329.5,222.5Z" transform="translate(0.15 -172)"/><ellipse class="cls-2" cx="1321.65" cy="50.5" rx="8.5" ry="5.5"/><ellipse class="cls-2" cx="1733.65" cy="88.5" rx="8.5" ry="5.5"/><ellipse class="cls-2" cx="1568.65" cy="248.5" rx="8.5" ry="5.5"/><ellipse class="cls-2" cx="1477.65" cy="336.5" rx="8.5" ry="5.5"/><ellipse class="cls-2" cx="1691.65" cy="347" rx="8.5" ry="5"/><ellipse class="cls-2" cx="1892.65" cy="357" rx="7.5" ry="5"/><ellipse class="cls-2" cx="1838.46" cy="436.7" rx="10.66" ry="5.88" transform="translate(-50.15 207.7) rotate(-11.63)"/><ellipse class="cls-2" cx="1249.65" cy="324.5" rx="8.5" ry="5.5"/><ellipse class="cls-1" cx="1210.65" cy="334.5" rx="8.5" ry="5.5"/><path class="cls-2" d="M1219.5,506.5c0,3.3-4,6-9,6s-9-2.7-9-6,4-6,9-6S1219.5,503.19,1219.5,506.5Zm-1,0c0-2.76-3.59-5-8-5s-8,2.24-8,5,3.59,5,8,5S1218.5,509.25,1218.5,506.5Z" transform="translate(0.15 -172)"/><ellipse class="cls-2" cx="1210.65" cy="334.5" rx="8.5" ry="5.5"/><ellipse class="cls-2" cx="1035.65" cy="354.5" rx="8.5" ry="5.5"/><ellipse class="cls-2" cx="1315.65" cy="291.5" rx="8.5" ry="5.5"/><rect class="cls-2" x="1132.5" y="197.42" width="2" height="390.15" transform="translate(352.95 1131.2) rotate(-68.49)"/><rect class="cls-2" x="1197.46" y="342.5" width="241.07" height="2" transform="translate(941.95 1480.54) rotate(-88.57)"/><rect class="cls-2" x="945.6" y="271" width="381.79" height="2" transform="translate(-31.59 128.83) rotate(-14.87)"/><rect class="cls-2" x="1526" y="35.12" width="2" height="413.75" transform="translate(1146.04 1568.35) rotate(-84.73)"/><rect class="cls-2" x="1291.66" y="361.5" width="464.69" height="2" transform="translate(-5.1 530.18) rotate(-25.9)"/><rect class="cls-2" x="1535.58" y="340" width="229.84" height="2" transform="translate(228.37 1073.18) rotate(-44.12)"/><rect class="cls-2" x="1313.19" y="441.5" width="257.61" height="2" transform="translate(-53.48 74.9) rotate(-9.61)"/><rect class="cls-2" x="1564.5" y="380" width="360" height="2" transform="translate(-40.9 225.19) rotate(-12.84)"/><rect class="cls-2" x="1825.5" y="175.15" width="2" height="187.68" transform="translate(1403.4 1894.03) rotate(-85.12)"/><rect class="cls-2" x="1832.23" y="413.5" width="93.54" height="2" transform="translate(32.48 783.1) rotate(-28.76)"/><rect class="cls-2" x="1838.22" y="428" width="82.57" height="2" transform="translate(-47.36 200.35) rotate(-11.17)"/><rect class="cls-2" x="1878.5" y="399.39" width="2" height="81.22" transform="translate(1301.35 2109.65) rotate(-85.74)"/><rect class="cls-2" x="1703" y="293.76" width="2" height="270.47" transform="translate(1174.39 1932.41) rotate(-86.58)"/><rect class="cls-2" x="1680.4" y="477" width="169.2" height="2" transform="translate(-10.38 743.27) rotate(-28.99)"/><rect class="cls-2" x="1473.45" y="472" width="369.09" height="2" transform="translate(-60.27 160.52) rotate(-11.25)"/><rect class="cls-2" x="1459.34" y="464" width="127.31" height="2" transform="translate(101.15 1009.7) rotate(-43.73)"/><rect class="cls-2" x="1583" y="406.88" width="2" height="214.23" transform="translate(996.47 1900.16) rotate(-87.31)"/><rect class="cls-2" x="1689.18" y="497.5" width="232.64" height="2" transform="translate(-59.45 154) rotate(-10.15)"/><rect class="cls-2" x="1790.5" y="424.42" width="2" height="201.16" transform="translate(1195.33 2122.03) rotate(-87.7)"/><rect class="cls-2" x="1891.13" y="523" width="29.73" height="2" transform="translate(-65.05 499.58) rotate(-19.65)"/><rect class="cls-2" x="1905" y="517.27" width="2" height="28.44" transform="translate(1047.87 2142.38) rotate(-79.88)"/><rect class="cls-2" x="1362" y="388.84" width="2" height="228.32" transform="translate(789 1665.59) rotate(-86.98)"/><rect class="cls-2" x="1246.05" y="479.5" width="72.9" height="2" transform="translate(-78.43 460.63) rotate(-26.92)"/><rect class="cls-2" x="1245.54" y="458" width="327.93" height="2" transform="translate(-67.85 167.16) rotate(-13.4)"/><rect class="cls-2" x="1209.38" y="501" width="41.23" height="2" transform="translate(-84.88 141.31) rotate(-14.04)"/><rect class="cls-2" x="1344" y="372.99" width="2" height="270.01" transform="translate(826.66 1676.99) rotate(-89.55)"/><rect class="cls-2" x="1031.5" y="494.5" width="287" height="2" transform="translate(-79.96 98.01) rotate(-12.68)"/><rect class="cls-2" x="1034.43" y="516" width="176.14" height="2" transform="translate(-51.3 -41.2) rotate(-6.52)"/><rect class="cls-2" x="992.5" y="312.95" width="2" height="222.09" transform="translate(-86.33 230.24) rotate(-21.96)"/><rect class="cls-2" x="718.58" y="395.5" width="257.84" height="2" transform="translate(-71.52 399.43) rotate(-35.85)"/><rect class="cls-2" x="789.5" y="427.4" width="2" height="95.19" transform="translate(266.8 1062.01) rotate(-86.39)"/><line class="cls-4" x1="1036.15" y1="356" x2="743.15" y2="300"/><rect class="cls-2" x="888.5" y="350.84" width="2" height="298.3" transform="translate(231.76 1107.99) rotate(-79.19)"/><rect class="cls-2" x="600.88" y="500.5" width="148.25" height="2" transform="translate(-143.68 138.07) rotate(-23.45)"/><rect class="cls-2" x="603.89" y="503" width="237.23" height="2" transform="translate(-95.61 5.69) rotate(-13.16)"/><rect class="cls-2" x="469.81" y="500.5" width="276.37" height="2" transform="translate(-92.9 -30.64) rotate(-12.33)"/><rect class="cls-2" x="671.5" y="325.15" width="2" height="180.69" transform="translate(-72.17 508.33) rotate(-51.28)"/><rect class="cls-2" x="430" y="444" width="215" height="2" transform="translate(-140.85 436) rotate(-53.13)"/><rect class="cls-2" x="600.98" y="339" width="354.05" height="2" transform="translate(-31.85 -86.53) rotate(-6.16)"/><rect class="cls-2" x="902.5" y="165.84" width="2" height="170.32" transform="translate(18.03 387.21) rotate(-34.71)"/><rect class="cls-2" x="1088" y="-32.94" width="2" height="469.88" transform="translate(790.66 1096.59) rotate(-84.87)"/><rect class="cls-2" x="571.15" y="270.5" width="312.71" height="2" transform="translate(-22.75 299.19) rotate(-35.37)"/><polygon class="cls-5" points="709.23 0 709.06 1.99 855.06 9.99 855.23 8 709.23 0"/><path class="cls-2" d="M434,224h0a1,1,0,0,0,.15,1.4L602.37,360.78l1.26-1.56L435.41,223.84A1,1,0,0,0,434,224Z" transform="translate(0.15 -172)"/><rect class="cls-2" x="416" y="136.32" width="2" height="378.35" transform="matrix(0.18, -0.98, 0.98, 0.18, 21.15, 504.25)"/><polygon class="cls-5" points="254.27 75.51 230.27 118.51 232.02 119.48 256.02 76.48 254.27 75.51"/><polygon class="cls-5" points="166.5 95.06 165.79 96.93 230.79 120.93 231.5 119.06 166.5 95.06"/><rect class="cls-2" x="351" y="241.28" width="2" height="339.42" transform="translate(-187.7 201.75) rotate(-45.47)"/><rect class="cls-2" x="111.36" y="366.5" width="167.29" height="2" transform="translate(-220.5 213.34) rotate(-64.51)"/><rect class="cls-2" x="315" y="323.58" width="2" height="325.83" transform="translate(-237.07 489.11) rotate(-74.51)"/><rect class="cls-2" x="265" y="368.11" width="2" height="227.77" transform="translate(-277.79 394.92) rotate(-69.98)"/><rect class="cls-2" x="422" y="475.29" width="2" height="100.4" transform="translate(-138.22 727.58) rotate(-84.85)"/><rect class="cls-2" x="471.99" y="531" width="137.01" height="2" transform="translate(-7.56 -164.05) rotate(-0.84)"/><rect class="cls-2" x="243" y="361.6" width="2" height="263.8" transform="translate(-289.36 457.3) rotate(-77.97)"/><rect class="cls-2" x="112.18" y="453.5" width="49.65" height="2" transform="translate(-194.81 -56.82) rotate(-27.6)"/><rect class="cls-2" x="79" y="329.17" width="2" height="168.66" transform="translate(-335.22 171.83) rotate(-69.53)"/><rect class="cls-2" x="79" y="359.37" width="2" height="158.26" transform="translate(-362.18 321.52) rotate(-86.75)"/><rect class="cls-2" x="56.5" y="399.37" width="2" height="116.25" transform="matrix(0.15, -0.99, 0.99, 0.15, -403.34, 275.59)"/><g class="cls-6"><path class="cls-2" d="M1919.88,559l-147.17,17.09,119.65-46.16L1892,529l-.14-1-285.71,40.81a5.48,5.48,0,0,0-.81-.78l86.15-48.17L1691,519l-.16-1-262.38,43.57a6.07,6.07,0,0,0-2.27-2.16l51.5-49.7-1.38-1.44-52.11,50.27a12.43,12.43,0,0,0-3.7-.55c-3.33,0-6.2,1.23-7.59,3l-202.65-55-.26,1-.23-1-166.19,39.44a10.24,10.24,0,0,0-7.08-2.46h-.5V527h-2v16.24a10.1,10.1,0,0,0-3.55,1.39L838.33,477.05,838,478l-.6-.81L707,574.08A9.33,9.33,0,0,0,702.5,573a8.73,8.73,0,0,0-5.93,2.13l-89.12-45-.9,1.79,88.83,44.88a4.28,4.28,0,0,0-.38,1.73c0,3,3.36,5.5,7.5,5.5,4,0,7.18-2.25,7.47-5.09l167.77-23A8,8,0,0,0,884.5,559a8.45,8.45,0,0,0,6.28-2.5L1050,591.28a1.5,1.5,0,0,0,0,.22c0,3,3.36,5.5,7.5,5.5s7.5-2.47,7.5-5.5a4.28,4.28,0,0,0-.75-2.39l145-80.55,13.92,83.53a9.17,9.17,0,0,0-1.79.41l-6.72-5.88a4.52,4.52,0,0,0,1.34-3.12c0-3-3.36-5.5-7.5-5.5s-7.5,2.46-7.5,5.5,3.36,5.5,7.5,5.5a9.35,9.35,0,0,0,4.55-1.14l6.38,5.59a5,5,0,0,0-2.43,4c0,3,3.36,5.5,7.5,5.5s7.5-2.47,7.5-5.5a3.52,3.52,0,0,0-.06-.66l181.14-30.66a7.07,7.07,0,0,0,2.07,1.59l-28.36,30.65a12.77,12.77,0,0,0-3.29-.42c-4.69,0-8.5,2.46-8.5,5.5s3.81,5.5,8.5,5.5,8.38-2.4,8.49-5.37l198.82-30.52a4.16,4.16,0,0,0,.4.45l-53,28.89a11.32,11.32,0,0,0-5.74-1.45c-4.69,0-8.5,2.46-8.5,5.5s3.81,5.5,8.5,5.5,8.5-2.47,8.5-5.5a4,4,0,0,0-1.08-2.68l53.13-29a12.48,12.48,0,0,0,5.45,1.17c3.89,0,7.16-1.54,8.17-3.64l151.41,6.35c.52,2.42,3.64,4.29,7.42,4.29,4.1,0,7.43-2.2,7.49-4.93L1920.12,561Zm-161.62,17.71-149.38-6.26,274.55-39.22L1771,574.61a9.48,9.48,0,0,0-5.5-1.61C1762,573,1759.11,574.57,1758.26,576.71Zm-341.11-8.16a12.39,12.39,0,0,0,3.35.45c3.76,0,7-1.59,8.07-3.78l159,6.36-196.09,30.1a6.27,6.27,0,0,0-2.71-2.48Zm-366.56,20.8L891.86,554.69l136.25-5.34c.61,2.51,3.85,4.46,7.85,4.63l17.28,33A6.37,6.37,0,0,0,1050.59,589.35Zm-168.82-41L840.3,479.87l188.5,66.3a4.67,4.67,0,0,0-.61,1.17l-136.28,5.35c-.54-2.66-3.64-4.69-7.41-4.69A9.63,9.63,0,0,0,881.77,548.38ZM708.62,575.32l129.09-95.87,42.19,69.71a5.15,5.15,0,0,0-2.9,4.34,3.15,3.15,0,0,0,0,.44l-167.34,23A5.2,5.2,0,0,0,708.62,575.32ZM1045,548.5a3.91,3.91,0,0,0-.23-1.27l158.41-37.59-140.36,78a9,9,0,0,0-5.32-1.62,10.12,10.12,0,0,0-2.37.28l-17-32.39C1042.06,553.39,1045,551.16,1045,548.5Zm367.06,14.38a3.18,3.18,0,0,0-.06.62,3.24,3.24,0,0,0,.11.82l-181,30.62a7.93,7.93,0,0,0-6-2.92l-13.94-83.65Zm191.26,4a12.87,12.87,0,0,0-4.82-.88c-3.92,0-7.22,1.56-8.2,3.69l-159.94-6.4,255.15-42.37Z" transform="translate(0.15 -172)"/><path class="cls-2" d="M465.33,583.25l68.33-61.59L318.71,563.3A5.1,5.1,0,0,1,319,565c0,3.31-3.13,6-7,6s-7-2.69-7-6a5.4,5.4,0,0,1,.09-.91L115.8,465.54,104,552.13l-.42-.06A5.77,5.77,0,0,1,107,557c0,3.31-3.58,6-8,6s-8-2.69-8-6a4.49,4.49,0,0,1,.09-.83L.77,535l.46-2,90.63,21.27A8.59,8.59,0,0,1,99,551a10.38,10.38,0,0,1,3.06.45l12-87.59,1,.14.46-.89,190.35,99.1A7.2,7.2,0,0,1,312,559a7.7,7.7,0,0,1,4.58,1.46l55.84-40.27,1.16,1.62L319,561.21,536.81,519l.19,1,.67.74-71,64Z" transform="translate(0.15 -172)"/></g><rect class="cls-2" x="0.29" y="472" width="115.41" height="2" transform="translate(-72.91 -157.17) rotate(-8.97)"/><rect class="cls-2" x="0.93" y="295" width="230.14" height="2" transform="translate(-10.07 -167.79) rotate(-1.99)"/></svg>