<?xml version="1.0" standalone="no"?>
<!DOCTYPE svg PUBLIC "-//W3C//DTD SVG 20010904//EN"
 "http://www.w3.org/TR/2001/REC-SVG-20010904/DTD/svg10.dtd">
<svg version="1.0" xmlns="http://www.w3.org/2000/svg"
 width="1920.000000pt" height="1080.000000pt" viewBox="0 0 1920.000000 1080.000000"
 preserveAspectRatio="xMidYMid meet">

<g transform="translate(0.000000,1080.000000) scale(0.100000,-0.100000)"
fill="#000000" stroke="none">
<path d="M2468 10784 c-34 -18 -39 -63 -8 -71 11 -3 20 -10 20 -15 0 -5 -9
-12 -20 -15 -20 -5 -29 -43 -10 -43 6 0 10 -9 10 -20 0 -15 -7 -20 -25 -20
-14 0 -28 -7 -31 -15 -4 -8 -12 -15 -20 -15 -8 0 -14 -5 -14 -11 0 -7 -10 -9
-25 -7 -14 3 -25 1 -25 -3 0 -5 7 -9 16 -9 13 0 14 -3 5 -14 -10 -12 -7 -15
16 -19 26 -4 26 -4 -5 -6 -21 0 -40 -9 -51 -22 -10 -13 -29 -21 -45 -21 -17 0
-23 -3 -16 -8 12 -7 -19 -26 -75 -45 -18 -6 -18 -7 -3 -16 18 -10 61 3 88 25
8 7 62 37 120 67 58 30 108 58 112 64 4 5 10 6 14 2 9 -9 9 -9 -46 -40 -201
-114 -291 -164 -327 -183 -23 -12 -58 -32 -78 -44 -41 -25 -62 -18 -26 9 21
16 21 19 6 24 -24 10 -35 9 -35 -4 0 -5 5 -7 12 -3 7 5 8 3 3 -5 -5 -9 -15 -5
-34 16 l-26 28 -95 -6 c-52 -4 -139 -8 -192 -8 -53 -1 -99 -5 -102 -10 -3 -5
-30 -21 -61 -36 -33 -15 -52 -31 -49 -37 4 -7 2 -8 -4 -4 -6 4 -33 -5 -59 -20
-26 -14 -86 -47 -133 -71 -47 -25 -92 -51 -100 -58 -8 -6 -53 -31 -100 -54
-47 -24 -98 -51 -115 -60 -27 -16 -123 -68 -257 -139 -27 -14 -48 -30 -48 -36
0 -11 22 -47 170 -276 190 -295 220 -342 220 -353 0 -7 7 -22 15 -34 9 -13 11
-24 6 -28 -5 -3 -15 3 -21 12 -7 12 -13 14 -16 7 -9 -22 -61 40 -169 206 -59
91 -140 212 -178 270 l-71 106 -56 -29 c-30 -16 -68 -37 -85 -47 -16 -9 -66
-37 -110 -60 -44 -24 -107 -58 -140 -76 -33 -18 -89 -48 -125 -68 l-65 -35 -3
-4700 -2 -4701 9600 0 9600 0 0 5400 0 5400 -8352 0 c-7385 -1 -8356 -3 -8380
-16z m112 -204 c-33 -26 -50 -26 -20 0 13 11 28 20 34 20 6 0 0 -9 -14 -20z"/>
<path d="M2268 10473 c7 -3 16 -2 19 1 4 3 -2 6 -13 5 -11 0 -14 -3 -6 -6z"/>
<path d="M2085 10345 c-47 -40 -36 -46 17 -10 20 14 41 25 47 25 5 0 13 5 16
10 15 25 -44 6 -80 -25z"/>
<path d="M497 9706 c-10 -8 -27 -12 -37 -9 -11 3 -20 0 -20 -6 0 -15 -27 -14
-33 2 -3 7 -6 5 -6 -5 -1 -11 6 -18 17 -19 10 0 6 -4 -10 -9 -14 -4 -44 -17
-65 -28 -21 -11 -55 -23 -76 -27 -23 -4 -35 -10 -31 -17 7 -10 -13 -28 -31
-28 -5 0 -3 4 5 10 8 5 11 12 7 16 -9 9 -37 -15 -37 -32 0 -8 -3 -13 -7 -12
-20 5 -93 -13 -88 -22 3 -6 -3 -10 -14 -10 -11 0 -32 -5 -46 -12 -19 -9 -25
-19 -25 -45 0 -18 2 -33 5 -33 2 0 24 11 47 25 24 14 68 39 98 55 30 17 62 35
70 40 37 24 250 139 269 145 12 3 21 10 21 15 0 5 8 11 18 13 12 3 13 5 2 6
-8 0 -23 -6 -33 -13z"/>
</g>
</svg>
