<svg id="图层_1" data-name="图层 1" xmlns="http://www.w3.org/2000/svg" viewBox="0 0 1921.66 253.1"><defs><style>.cls-1,.cls-2,.cls-3{fill:none;stroke:#3eaceb;stroke-miterlimit:10;stroke-width:2px;}.cls-1,.cls-4{opacity:0.3;}.cls-2,.cls-5{opacity:0.2;}.cls-3,.cls-6{opacity:0.1;}.cls-4,.cls-5,.cls-6{fill:#3eaceb;}</style></defs><title>底部点线</title><line class="cls-1" x1="0.31" y1="73.12" x2="125.73" y2="32.37"/><line class="cls-1" x1="126.02" y1="32.15" x2="204.02" y2="80.21"/><line class="cls-1" x1="204.02" y1="80.21" x2="317.02" y2="27.57"/><line class="cls-1" x1="317.02" y1="27.57" x2="381.02" y2="81.35"/><line class="cls-1" x1="204.02" y1="80.21" x2="424.02" y2="26.43"/><line class="cls-1" x1="126.02" y1="32.15" x2="198.02" y2="124.83"/><line class="cls-1" x1="424.02" y1="26.43" x2="443.02" y2="77.92"/><line class="cls-2" x1="381.02" y1="81.35" x2="552.02" y2="18.42"/><line class="cls-2" x1="552.02" y1="18.42" x2="689.02" y2="77.92"/><line class="cls-3" x1="689.02" y1="77.92" x2="778.02" y2="51.6"/><line class="cls-3" x1="778.02" y1="51.6" x2="899.02" y2="127.12"/><line class="cls-3" x1="899.02" y1="127.12" x2="1045.02" y2="49.31"/><line class="cls-3" x1="1045.02" y1="49.31" x2="1076.02" y2="89.36"/><line class="cls-3" x1="1076.02" y1="89.36" x2="1204.02" y2="128.26"/><line class="cls-2" x1="1204.02" y1="128.26" x2="1336.02" y2="64.19"/><line class="cls-2" x1="1336.02" y1="64.19" x2="1539.02" y2="108.81"/><line class="cls-1" x1="1539.02" y1="108.81" x2="1734.02" y2="85.93"/><line class="cls-1" x1="1734.02" y1="85.93" x2="1792.02" y2="6.98"/><line class="cls-1" x1="1792.02" y1="6.98" x2="1921.02" y2="68.77"/><line class="cls-1" x1="198.02" y1="124.83" x2="381.02" y2="81.35"/><line class="cls-2" x1="381.02" y1="81.35" x2="507.02" y2="132.84"/><line class="cls-2" x1="507.02" y1="132.84" x2="552.02" y2="18.42"/><line class="cls-2" x1="552.02" y1="18.42" x2="644.02" y2="123.69"/><line class="cls-2" x1="644.02" y1="123.69" x2="689.02" y2="77.92"/><line class="cls-2" x1="644.02" y1="123.69" x2="899.02" y2="127.12"/><line class="cls-2" x1="778.02" y1="51.6" x2="620.02" y2="180.9"/><line class="cls-2" x1="620.02" y1="180.9" x2="507.02" y2="132.84"/><line class="cls-2" x1="620.02" y1="180.9" x2="813.02" y2="106.52"/><line class="cls-3" x1="813.02" y1="106.52" x2="952.02" y2="192.34"/><line class="cls-3" x1="952.02" y1="192.34" x2="1045.02" y2="49.31"/><line class="cls-3" x1="813.02" y1="106.52" x2="753.02" y2="198.06"/><line class="cls-3" x1="753.02" y1="198.06" x2="952.02" y2="192.34"/><line class="cls-3" x1="952.02" y1="192.34" x2="1191.02" y2="68.77"/><line class="cls-2" x1="1191.02" y1="68.77" x2="1338.02" y2="208.36"/><line class="cls-3" x1="1204.02" y1="128.26" x2="1045.02" y2="49.31"/><line class="cls-2" x1="1076.02" y1="89.36" x2="1338.02" y2="208.36"/><line class="cls-2" x1="1338.02" y1="208.36" x2="952.02" y2="192.34"/><line class="cls-3" x1="1204.02" y1="128.26" x2="1099.02" y2="198.06"/><line class="cls-2" x1="1338.02" y1="208.36" x2="1336.02" y2="64.19"/><line class="cls-2" x1="1338.02" y1="208.36" x2="1403.02" y2="130.55"/><line class="cls-2" x1="1403.02" y1="130.55" x2="1565.02" y2="183.19"/><line class="cls-2" x1="1539.02" y1="108.81" x2="1403.02" y2="130.55"/><line class="cls-1" x1="1565.02" y1="183.19" x2="1539.02" y2="108.81"/><line class="cls-2" x1="1565.02" y1="183.19" x2="1338.02" y2="208.36"/><line class="cls-2" x1="1408.02" y1="130.55" x2="1747.02" y2="162.59"/><line class="cls-1" x1="1747.02" y1="162.59" x2="1565.02" y2="183.19"/><line class="cls-1" x1="1747.02" y1="162.59" x2="1734.02" y2="85.93"/><line class="cls-1" x1="1747.02" y1="162.59" x2="1792.02" y2="6.98"/><line class="cls-1" x1="1792.02" y1="6.98" x2="1856.02" y2="108.81"/><line class="cls-1" x1="1856.02" y1="108.81" x2="1747.02" y2="162.59"/><line class="cls-1" x1="1856.02" y1="108.81" x2="1921.02" y2="162.59"/><line class="cls-1" x1="1747.02" y1="162.59" x2="1921.02" y2="162.59"/><line class="cls-2" x1="753.02" y1="198.06" x2="620.02" y2="180.9"/><line class="cls-2" x1="507.02" y1="132.84" x2="382.02" y2="171.75"/><line class="cls-2" x1="382.02" y1="171.75" x2="620.02" y2="180.9"/><line class="cls-1" x1="443.02" y1="77.92" x2="382.02" y2="171.75"/><line class="cls-1" x1="382.02" y1="171.75" x2="204.02" y2="80.21"/><line class="cls-1" x1="382.02" y1="171.75" x2="198.02" y2="124.83"/><line class="cls-1" x1="198.02" y1="124.83" x2="76.02" y2="180.9"/><line class="cls-1" x1="126.02" y1="32.15" x2="76.02" y2="180.9"/><line class="cls-1" x1="76.02" y1="180.9" x2="382.02" y2="171.75"/><line class="cls-1" x1="76.02" y1="180.9" x2="1.02" y2="191.2"/><line class="cls-3" x1="899.02" y1="127.12" x2="954.02" y2="48.17"/><line class="cls-1" x1="1539.02" y1="108.81" x2="1659.02" y2="64.19"/><line class="cls-2" x1="620.02" y1="180.9" x2="475.02" y2="219.8"/><line class="cls-2" x1="382.02" y1="171.75" x2="475.02" y2="219.8"/><line class="cls-2" x1="475.02" y1="219.8" x2="381.02" y2="240.4"/><line class="cls-1" x1="382.02" y1="171.75" x2="137.02" y2="230.1"/><line class="cls-1" x1="76.02" y1="180.9" x2="137.02" y2="230.1"/><line class="cls-3" x1="952.02" y1="192.34" x2="1042.02" y2="246.12"/><line class="cls-1" x1="1565.02" y1="183.19" x2="1687.02" y2="230.1"/><line class="cls-2" x1="1338.02" y1="208.36" x2="1687.02" y2="230.1"/><line class="cls-1" x1="1687.02" y1="230.1" x2="1921.02" y2="162.59"/><line class="cls-3" x1="1042.02" y1="246.12" x2="753.02" y2="198.06"/><line class="cls-3" x1="1042.02" y1="246.12" x2="1099.02" y2="198.06"/><ellipse class="cls-4" cx="76.02" cy="180.9" rx="8" ry="6.87"/><ellipse class="cls-4" cx="126.02" cy="32.15" rx="8" ry="6.87"/><ellipse class="cls-4" cx="204.02" cy="80.21" rx="8" ry="6.87"/><ellipse class="cls-4" cx="198.02" cy="124.83" rx="8" ry="6.87"/><ellipse class="cls-4" cx="382.02" cy="171.75" rx="8" ry="6.87"/><ellipse class="cls-4" cx="442" cy="491.82" rx="8.08" ry="6.8" transform="translate(-145.73 -223.12) rotate(-20.97)"/><ellipse class="cls-5" cx="552" cy="433.47" rx="8.08" ry="6.8" transform="translate(-117.56 -187.61) rotate(-20.97)"/><ellipse class="cls-5" cx="619" cy="594.8" rx="8.02" ry="6.85" transform="translate(-98.46 -288.92) rotate(-10.68)"/><ellipse class="cls-6" cx="752" cy="611.97" rx="8.02" ry="6.85" transform="translate(-99.34 -263.98) rotate(-10.68)"/><ellipse class="cls-5" cx="643" cy="537.59" rx="8.08" ry="6.8" transform="translate(-148.8 -148.15) rotate(-20.97)"/><ellipse class="cls-6" cx="777" cy="465.5" rx="8.08" ry="6.8" transform="matrix(0.93, -0.36, 0.36, 0.93, -114.12, -104.96)"/><ellipse class="cls-6" cx="812" cy="520.43" rx="8.08" ry="6.8" transform="translate(-131.46 -88.79) rotate(-20.97)"/><ellipse class="cls-6" cx="897" cy="539.88" rx="8.08" ry="6.8" transform="translate(-132.79 -57.08) rotate(-20.97)"/><ellipse class="cls-6" cx="951" cy="606.24" rx="8.08" ry="6.8" transform="translate(-152.96 -33.36) rotate(-20.97)"/><ellipse class="cls-6" cx="1041" cy="660.02" rx="8.08" ry="6.8" transform="translate(-166.25 2.42) rotate(-20.97)"/><ellipse class="cls-6" cx="1044" cy="463.22" rx="8.08" ry="6.8" transform="translate(-95.61 -9.55) rotate(-20.97)"/><ellipse class="cls-6" cx="1074" cy="503.26" rx="8.08" ry="6.8" transform="translate(-107.96 3.84) rotate(-20.97)"/><ellipse class="cls-6" cx="1190" cy="482.67" rx="8.08" ry="6.8" transform="translate(-92.9 44) rotate(-20.97)"/><ellipse class="cls-5" cx="1334" cy="478.09" rx="8.08" ry="6.8" transform="translate(-81.72 95.24) rotate(-20.97)"/><ellipse class="cls-5" cx="1402" cy="544.46" rx="8.08" ry="6.8" transform="translate(-100.97 123.97) rotate(-20.97)"/><ellipse class="cls-5" cx="1336" cy="621.12" rx="8.08" ry="6.8" transform="translate(-132.78 105.43) rotate(-20.97)"/><ellipse class="cls-4" cx="1538" cy="522.72" rx="8.08" ry="6.8" transform="translate(-84.18 171.21) rotate(-20.97)"/><ellipse class="cls-4" cx="1564" cy="597.09" rx="8.08" ry="6.8" transform="translate(-109.08 185.44) rotate(-20.97)"/><ellipse class="cls-4" cx="1686" cy="644" rx="8.08" ry="6.8" transform="translate(-117.79 232.22) rotate(-20.97)"/><ellipse class="cls-4" cx="1745" cy="576.49" rx="8.08" ry="6.8" transform="translate(-89.71 248.86) rotate(-20.97)"/><ellipse class="cls-4" cx="1791" cy="420.88" rx="8.08" ry="6.8" transform="matrix(0.93, -0.36, 0.36, 0.93, -30.97, 255.02)"/><ellipse class="cls-4" cx="1853" cy="522.72" rx="8.08" ry="6.8" transform="translate(-63.31 283.95) rotate(-20.97)"/><ellipse class="cls-4" cx="424.02" cy="26.43" rx="8" ry="6.87"/><ellipse class="cls-4" cx="317.02" cy="27.57" rx="8" ry="6.87"/></svg>