<svg width="136" height="44" viewBox="0 0 136 44" fill="none" xmlns="http://www.w3.org/2000/svg">
<path d="M0 2C0 0.895431 0.895431 0 2 0H134C135.105 0 136 0.895431 136 2V42C136 43.1046 135.105 44 134 44H2C0.895432 44 0 43.1046 0 42V2Z" fill="black"/>
<g clip-path="url(#clip0)">
<path d="M36.1071 26.9421C35.292 26.9421 34.629 26.2786 34.629 25.4636C34.629 24.6485 35.292 23.9855 36.1071 23.9855C36.9222 23.9855 37.5852 24.6485 37.5852 25.4636C37.5852 26.2786 36.9222 26.9421 36.1071 26.9421ZM19.7691 26.9421C18.954 26.9421 18.291 26.2786 18.291 25.4636C18.291 24.6485 18.954 23.9855 19.7691 23.9855C20.5842 23.9855 21.2472 24.6485 21.2472 25.4636C21.2472 26.2786 20.5842 26.9421 19.7691 26.9421ZM36.6372 18.0382L39.5915 12.9217C39.7608 12.6277 39.6601 12.252 39.3665 12.0822C39.0729 11.9128 38.6967 12.0136 38.5269 12.3072L35.5357 17.4884C33.2483 16.4445 30.6794 15.863 27.9381 15.863C25.1969 15.863 22.6279 16.4445 20.3405 17.4884L17.3493 12.3072C17.1795 12.0136 16.8034 11.9128 16.5098 12.0822C16.2162 12.252 16.1149 12.6277 16.2848 12.9217L19.239 18.0382C14.1662 20.7971 10.6968 25.9327 10.1892 32H45.687C45.179 25.9327 41.7095 20.7971 36.6372 18.0382Z" fill="#3DDB85"/>
<g clip-path="url(#clip1)">
<path d="M53.687 9.375V14.975H55.911C57.663 14.975 58.819 13.863 58.819 12.175C58.819 10.487 57.663 9.375 55.911 9.375H53.687ZM55.911 10.231C57.227 10.231 57.871 11.035 57.871 12.175C57.871 13.303 57.227 14.119 55.911 14.119H54.591V10.231H55.911Z" fill="white"/>
<path d="M62.8056 9.271C61.0856 9.271 59.8736 10.503 59.8736 12.175C59.8736 13.847 61.0856 15.079 62.8056 15.079C64.5256 15.079 65.7376 13.847 65.7376 12.175C65.7376 10.503 64.5256 9.271 62.8056 9.271ZM62.8056 10.139C63.9496 10.139 64.7896 10.967 64.7896 12.175C64.7896 13.383 63.9496 14.211 62.8056 14.211C61.6616 14.211 60.8216 13.383 60.8216 12.175C60.8216 10.967 61.6616 10.139 62.8056 10.139Z" fill="white"/>
<path d="M74.78 9.375H73.852L72.516 13.931L71.136 9.375H70.108L68.724 13.931L67.392 9.375H66.444L68.152 14.975H69.272L70.612 10.603L71.952 14.975H73.072L74.78 9.375Z" fill="white"/>
<path d="M80.7178 9.375H79.8138V13.427L76.6858 9.375H75.8698V14.975H76.7738L76.7778 10.923L79.9018 14.975H80.7178V9.375Z" fill="white"/>
<path d="M86.3801 14.119H83.2801V9.375H82.3761V14.975H86.3801V14.119Z" fill="white"/>
<path d="M89.815 9.271C88.095 9.271 86.883 10.503 86.883 12.175C86.883 13.847 88.095 15.079 89.815 15.079C91.535 15.079 92.747 13.847 92.747 12.175C92.747 10.503 91.535 9.271 89.815 9.271ZM89.815 10.139C90.959 10.139 91.799 10.967 91.799 12.175C91.799 13.383 90.959 14.211 89.815 14.211C88.671 14.211 87.831 13.383 87.831 12.175C87.831 10.967 88.671 10.139 89.815 10.139Z" fill="white"/>
<path d="M96.6433 9.375H95.5153L93.3033 14.975H94.2433L94.7953 13.547H97.3313L97.8833 14.975H98.8553L96.6433 9.375ZM96.0633 10.275L96.9993 12.691H95.1273L96.0633 10.275Z" fill="white"/>
<path d="M99.8714 9.375V14.975H102.095C103.847 14.975 105.003 13.863 105.003 12.175C105.003 10.487 103.847 9.375 102.095 9.375H99.8714ZM102.095 10.231C103.411 10.231 104.055 11.035 104.055 12.175C104.055 13.303 103.411 14.119 102.095 14.119H100.775V10.231H102.095Z" fill="white"/>
<path d="M111.201 9.375H110.073L107.861 14.975H108.801L109.353 13.547H111.889L112.441 14.975H113.413L111.201 9.375ZM110.621 10.275L111.557 12.691H109.685L110.621 10.275Z" fill="white"/>
<path d="M116.601 12.775C117.893 12.775 118.585 12.123 118.585 11.075C118.585 10.027 117.893 9.375 116.601 9.375H114.429V14.975H115.333V12.775H116.601ZM116.577 10.227C117.309 10.227 117.645 10.499 117.645 11.075C117.645 11.651 117.309 11.923 116.577 11.923H115.333V10.227H116.577Z" fill="white"/>
<path d="M123.537 14.975H124.765L122.073 12.107L124.593 9.375H123.425L121.321 11.731H120.769V9.375H119.865V14.975H120.769V12.587H121.309L123.537 14.975Z" fill="white"/>
<path d="M63.577 24.899H61.487V26.059C60.827 25.209 59.837 24.649 58.477 24.649C55.797 24.649 53.687 26.759 53.687 29.689C53.687 32.619 55.797 34.729 58.477 34.729C59.837 34.729 60.827 34.179 61.487 33.329V34.479H63.577V24.899ZM58.727 26.619C60.457 26.619 61.617 27.939 61.617 29.689C61.617 31.439 60.457 32.759 58.727 32.759C56.927 32.759 55.837 31.369 55.837 29.689C55.837 28.009 56.927 26.619 58.727 26.619Z" fill="white"/>
<path d="M71.6775 24.649C70.6975 24.649 69.5075 24.939 68.7375 26.069V24.899H66.6575V34.479H68.7575V29.169C68.7575 27.529 69.8875 26.639 71.2375 26.639C72.6375 26.639 73.4675 27.539 73.4675 29.149V34.479H75.5675V28.459C75.5675 26.219 73.9575 24.649 71.6775 24.649Z" fill="white"/>
<path d="M82.6473 24.649C79.9673 24.649 77.8573 26.759 77.8573 29.689C77.8573 32.619 79.9673 34.729 82.6473 34.729C84.0073 34.729 84.9973 34.179 85.6573 33.329V34.479H87.7473V20.079H85.6573V26.059C84.9973 25.209 84.0073 24.649 82.6473 24.649ZM82.8973 26.619C84.6273 26.619 85.7873 27.939 85.7873 29.689C85.7873 31.439 84.6273 32.759 82.8973 32.759C81.0973 32.759 80.0073 31.369 80.0073 29.689C80.0073 28.009 81.0973 26.619 82.8973 26.619Z" fill="white"/>
<path d="M95.6778 24.649C94.5078 24.649 93.5278 25.069 92.8978 25.979V24.899H90.8278V34.479H92.9178V29.209C92.9178 27.579 93.8678 26.639 95.1978 26.639C95.7078 26.639 96.3478 26.759 96.7878 26.989L97.2878 24.919C96.8078 24.729 96.3178 24.649 95.6778 24.649Z" fill="white"/>
<path d="M103.291 24.649C100.331 24.649 98.1409 26.819 98.1409 29.689C98.1409 32.559 100.331 34.729 103.291 34.729C106.251 34.729 108.451 32.559 108.451 29.689C108.451 26.819 106.251 24.649 103.291 24.649ZM103.291 26.619C105.001 26.619 106.301 27.879 106.301 29.689C106.301 31.499 105.001 32.759 103.291 32.759C101.581 32.759 100.291 31.499 100.291 29.689C100.291 27.879 101.581 26.619 103.291 26.619Z" fill="white"/>
<path d="M112.938 24.899H110.838V34.479H112.938V24.899ZM111.878 20.109C111.048 20.109 110.418 20.759 110.418 21.589C110.418 22.419 111.048 23.049 111.878 23.049C112.708 23.049 113.358 22.419 113.358 21.589C113.358 20.759 112.708 20.109 111.878 20.109Z" fill="white"/>
<path d="M120.109 24.649C117.429 24.649 115.319 26.759 115.319 29.689C115.319 32.619 117.429 34.729 120.109 34.729C121.469 34.729 122.459 34.179 123.119 33.329V34.479H125.209V20.079H123.119V26.059C122.459 25.209 121.469 24.649 120.109 24.649ZM120.359 26.619C122.089 26.619 123.249 27.939 123.249 29.689C123.249 31.439 122.089 32.759 120.359 32.759C118.559 32.759 117.469 31.369 117.469 29.689C117.469 28.009 118.559 26.619 120.359 26.619Z" fill="white"/>
</g>
</g>
<defs>
<clipPath id="clip0">
<rect x="10.1892" y="9.271" width="115.02" height="25.458" fill="white"/>
</clipPath>
<clipPath id="clip1">
<rect x="53.687" y="9.271" width="71.522" height="25.458" fill="white"/>
</clipPath>
</defs>
</svg>
