<svg width="120" height="44" viewBox="0 0 120 44" fill="none" xmlns="http://www.w3.org/2000/svg">
<path d="M0 2C0 0.895431 0.895431 0 2 0H118C119.105 0 120 0.895431 120 2V42C120 43.1046 119.105 44 118 44H2C0.895429 44 0 43.1046 0 42V2Z" fill="black"/>
<path d="M24.7689 22.3007C24.7796 21.466 25.0013 20.6477 25.4134 19.9217C25.8254 19.1957 26.4144 18.5858 27.1254 18.1486C26.6737 17.5035 26.0778 16.9725 25.3849 16.598C24.6921 16.2234 23.9215 16.0156 23.1343 15.991C21.455 15.8147 19.8271 16.9958 18.9714 16.9958C18.0991 16.9958 16.7816 16.0085 15.3629 16.0376C14.4452 16.0673 13.5509 16.3341 12.767 16.8122C11.9831 17.2903 11.3364 17.9632 10.89 18.7655C8.95597 22.1139 10.3986 27.035 12.2512 29.7416C13.1781 31.0669 14.2613 32.5474 15.6788 32.4949C17.0659 32.4374 17.5839 31.6104 19.2582 31.6104C20.917 31.6104 21.403 32.4949 22.8492 32.4615C24.3376 32.4374 25.2753 31.1303 26.1697 29.7924C26.8357 28.848 27.3481 27.8043 27.6881 26.6999C26.8234 26.3341 26.0855 25.722 25.5664 24.9397C25.0473 24.1574 24.7699 23.2396 24.7689 22.3007Z" fill="white"/>
<path d="M22.0373 14.2109C22.8488 13.2367 23.2486 11.9845 23.1518 10.7203C21.9119 10.8505 20.7667 11.4431 19.9442 12.3799C19.5421 12.8376 19.2341 13.37 19.0378 13.9468C18.8416 14.5235 18.7609 15.1333 18.8005 15.7413C19.4206 15.7477 20.0341 15.6132 20.5948 15.3482C21.1555 15.0831 21.6487 14.6942 22.0373 14.2109Z" fill="white"/>
<path d="M42.3023 29.1396H37.5689L36.4322 32.4961H34.4273L38.9107 20.0781H40.9937L45.4771 32.4961H43.438L42.3023 29.1396ZM38.0591 27.5908H41.8111L39.9615 22.1435H39.9097L38.0591 27.5908Z" fill="white"/>
<path d="M55.1597 27.9697C55.1597 30.7832 53.6538 32.5908 51.3814 32.5908C50.8057 32.6209 50.2332 32.4883 49.7294 32.2082C49.2256 31.928 48.8109 31.5117 48.5327 31.0068H48.4897V35.4912H46.6313V23.4423H48.4302V24.9482H48.4644C48.7553 24.4457 49.1771 24.0316 49.6847 23.7497C50.1923 23.4679 50.7669 23.3289 51.3472 23.3476C53.645 23.3476 55.1597 25.164 55.1597 27.9697ZM53.2495 27.9697C53.2495 26.1367 52.3023 24.9316 50.857 24.9316C49.437 24.9316 48.482 26.1621 48.482 27.9697C48.482 29.7939 49.437 31.0156 50.857 31.0156C52.3023 31.0156 53.2495 29.8193 53.2495 27.9697Z" fill="white"/>
<path d="M65.1245 27.9697C65.1245 30.7832 63.6187 32.5908 61.3462 32.5908C60.7706 32.621 60.1981 32.4883 59.6943 32.2082C59.1905 31.9281 58.7758 31.5117 58.4976 31.0068H58.4546V35.4912H56.5962V23.4424H58.395V24.9483H58.4292C58.7201 24.4458 59.1419 24.0316 59.6495 23.7498C60.1571 23.4679 60.7317 23.329 61.312 23.3477C63.6099 23.3477 65.1245 25.1641 65.1245 27.9697ZM63.2144 27.9697C63.2144 26.1367 62.2671 24.9317 60.8218 24.9317C59.4019 24.9317 58.4468 26.1621 58.4468 27.9697C58.4468 29.794 59.4019 31.0156 60.8218 31.0156C62.2671 31.0156 63.2144 29.8194 63.2144 27.9697H63.2144Z" fill="white"/>
<path d="M71.7105 29.0361C71.8482 30.2676 73.0445 31.0761 74.6792 31.0761C76.2456 31.0761 77.3726 30.2675 77.3726 29.1572C77.3726 28.1933 76.6929 27.6162 75.0835 27.2207L73.4742 26.833C71.1939 26.2822 70.1353 25.2158 70.1353 23.4853C70.1353 21.3427 72.0025 19.871 74.6538 19.871C77.2778 19.871 79.0767 21.3427 79.1372 23.4853H77.2612C77.1489 22.246 76.1245 21.498 74.6274 21.498C73.1304 21.498 72.106 22.2548 72.106 23.3564C72.106 24.2343 72.7603 24.7509 74.3608 25.1464L75.729 25.4823C78.2769 26.0849 79.3355 27.1083 79.3355 28.9247C79.3355 31.248 77.4849 32.703 74.5415 32.703C71.7876 32.703 69.9282 31.2821 69.8081 29.036L71.7105 29.0361Z" fill="white"/>
<path d="M83.3462 21.2998V23.4424H85.0679V24.9141H83.3462V29.9053C83.3462 30.6807 83.6909 31.042 84.4478 31.042C84.6522 31.0384 84.8562 31.0241 85.0591 30.999V32.4619C84.7188 32.5255 84.373 32.5543 84.0269 32.5478C82.1939 32.5478 81.479 31.8593 81.479 30.1035V24.9141H80.1626V23.4424H81.479V21.2998H83.3462Z" fill="white"/>
<path d="M86.065 27.9697C86.065 25.1211 87.7427 23.3311 90.3589 23.3311C92.9839 23.3311 94.6539 25.1211 94.6539 27.9697C94.6539 30.8262 92.9927 32.6084 90.3589 32.6084C87.7261 32.6084 86.065 30.8262 86.065 27.9697ZM92.7603 27.9697C92.7603 26.0156 91.8648 24.8623 90.3589 24.8623C88.8531 24.8623 87.9585 26.0244 87.9585 27.9697C87.9585 29.9316 88.8531 31.0762 90.3589 31.0762C91.8648 31.0762 92.7603 29.9316 92.7603 27.9697H92.7603Z" fill="white"/>
<path d="M96.1861 23.4424H97.9585V24.9834H98.0015C98.1215 24.5021 98.4034 24.0768 98.8 23.7789C99.1966 23.481 99.6836 23.3287 100.179 23.3476C100.393 23.3469 100.607 23.3702 100.816 23.417V25.1553C100.546 25.0726 100.264 25.0347 99.981 25.043C99.711 25.032 99.4419 25.0796 99.192 25.1825C98.9422 25.2854 98.7176 25.4411 98.5336 25.639C98.3496 25.8369 98.2106 26.0723 98.1262 26.3289C98.0418 26.5856 98.0139 26.8575 98.0445 27.126V32.4961H96.1861L96.1861 23.4424Z" fill="white"/>
<path d="M109.384 29.8369C109.134 31.4805 107.534 32.6084 105.486 32.6084C102.852 32.6084 101.217 30.8437 101.217 28.0127C101.217 25.1729 102.861 23.3311 105.408 23.3311C107.913 23.3311 109.488 25.0518 109.488 27.7969V28.4336H103.093V28.5459C103.064 28.8791 103.105 29.2148 103.216 29.5306C103.326 29.8464 103.502 30.1352 103.732 30.3778C103.963 30.6203 104.242 30.8111 104.552 30.9374C104.861 31.0637 105.195 31.1226 105.529 31.1103C105.968 31.1515 106.409 31.0498 106.785 30.8203C107.162 30.5909 107.455 30.246 107.62 29.8369L109.384 29.8369ZM103.102 27.1348H107.628C107.645 26.8352 107.6 26.5354 107.495 26.2541C107.39 25.9729 107.229 25.7164 107.02 25.5006C106.812 25.2849 106.561 25.1145 106.283 25.0003C106.006 24.8861 105.708 24.8305 105.408 24.8369C105.105 24.8351 104.805 24.8933 104.525 25.008C104.245 25.1227 103.99 25.2918 103.776 25.5054C103.562 25.7191 103.392 25.973 103.276 26.2527C103.16 26.5323 103.101 26.8321 103.102 27.1348V27.1348Z" fill="white"/>
<path d="M37.8262 10.731C38.2158 10.7031 38.6068 10.7619 38.9709 10.9033C39.335 11.0448 39.6632 11.2653 39.9318 11.5489C40.2004 11.8325 40.4026 12.1722 40.524 12.5435C40.6455 12.9148 40.6829 13.3083 40.6338 13.6959C40.6338 15.6021 39.6035 16.6979 37.8262 16.6979H35.6709V10.731H37.8262ZM36.5977 15.854H37.7227C38.0011 15.8707 38.2797 15.825 38.5382 15.7204C38.7968 15.6158 39.0287 15.4548 39.2172 15.2493C39.4057 15.0437 39.546 14.7987 39.6279 14.5321C39.7097 14.2655 39.7311 13.9839 39.6904 13.708C39.7282 13.4332 39.7046 13.1534 39.6215 12.8887C39.5384 12.6241 39.3977 12.3811 39.2097 12.1771C39.0216 11.9732 38.7908 11.8134 38.5337 11.7092C38.2766 11.6049 37.9997 11.5589 37.7227 11.5742H36.5977V15.854Z" fill="white"/>
<path d="M41.6807 14.4443C41.6524 14.1484 41.6862 13.8499 41.7801 13.5678C41.8739 13.2857 42.0257 13.0264 42.2256 12.8064C42.4256 12.5864 42.6693 12.4107 42.9411 12.2904C43.213 12.1701 43.507 12.108 43.8042 12.108C44.1015 12.108 44.3955 12.1701 44.6673 12.2904C44.9392 12.4107 45.1829 12.5864 45.3828 12.8064C45.5828 13.0264 45.7345 13.2857 45.8284 13.5678C45.9222 13.8499 45.9561 14.1484 45.9278 14.4443C45.9566 14.7406 45.9232 15.0396 45.8296 15.3221C45.736 15.6046 45.5843 15.8644 45.3843 16.0848C45.1843 16.3052 44.9404 16.4814 44.6683 16.6019C44.3962 16.7225 44.1019 16.7847 43.8042 16.7847C43.5066 16.7847 43.2123 16.7225 42.9402 16.6019C42.668 16.4814 42.4241 16.3052 42.2241 16.0848C42.0242 15.8644 41.8725 15.6046 41.7789 15.3221C41.6853 15.0396 41.6519 14.7406 41.6807 14.4443ZM45.0137 14.4443C45.0137 13.4683 44.5752 12.8975 43.8057 12.8975C43.0332 12.8975 42.5987 13.4683 42.5987 14.4444C42.5987 15.4282 43.0333 15.9946 43.8057 15.9946C44.5752 15.9946 45.0137 15.4243 45.0137 14.4443H45.0137Z" fill="white"/>
<path d="M51.5733 16.6978H50.6514L49.7207 13.3813H49.6504L48.7237 16.6978H47.8106L46.5694 12.1948H47.4707L48.2774 15.6308H48.3438L49.2696 12.1948H50.1221L51.0479 15.6308H51.1182L51.9209 12.1948H52.8096L51.5733 16.6978Z" fill="white"/>
<path d="M53.8536 12.1948H54.709V12.9101H54.7754C54.8881 12.6532 55.0781 12.4378 55.319 12.294C55.5598 12.1502 55.8396 12.0852 56.1192 12.1079C56.3383 12.0914 56.5583 12.1244 56.7629 12.2045C56.9675 12.2846 57.1514 12.4097 57.3011 12.5706C57.4508 12.7314 57.5624 12.9239 57.6276 13.1337C57.6928 13.3435 57.7099 13.5653 57.6778 13.7827V16.6977H56.7891V14.0058C56.7891 13.2822 56.4746 12.9223 55.8174 12.9223C55.6687 12.9154 55.5202 12.9407 55.3821 12.9966C55.244 13.0524 55.1197 13.1374 55.0176 13.2458C54.9154 13.3542 54.838 13.4834 54.7904 13.6245C54.7429 13.7656 54.7265 13.9154 54.7422 14.0635V16.6977H53.8535L53.8536 12.1948Z" fill="white"/>
<path d="M59.0938 10.437H59.9825V16.6978H59.0938V10.437Z" fill="white"/>
<path d="M61.2178 14.4444C61.1895 14.1484 61.2234 13.8499 61.3172 13.5678C61.4111 13.2857 61.5629 13.0263 61.7628 12.8064C61.9628 12.5864 62.2065 12.4106 62.4784 12.2903C62.7503 12.17 63.0443 12.1079 63.3416 12.1079C63.6389 12.1079 63.9329 12.17 64.2047 12.2903C64.4766 12.4106 64.7203 12.5864 64.9203 12.8064C65.1203 13.0263 65.272 13.2857 65.3659 13.5678C65.4598 13.8499 65.4936 14.1484 65.4653 14.4444C65.4942 14.7406 65.4607 15.0396 65.3671 15.3221C65.2734 15.6046 65.1217 15.8645 64.9217 16.0849C64.7217 16.3053 64.4778 16.4814 64.2057 16.6019C63.9335 16.7225 63.6392 16.7847 63.3416 16.7847C63.0439 16.7847 62.7496 16.7225 62.4775 16.6019C62.2053 16.4814 61.9614 16.3053 61.7614 16.0849C61.5614 15.8645 61.4097 15.6046 61.3161 15.3221C61.2225 15.0396 61.189 14.7406 61.2178 14.4444ZM64.5508 14.4444C64.5508 13.4683 64.1123 12.8975 63.3428 12.8975C62.5703 12.8975 62.1358 13.4683 62.1358 14.4444C62.1358 15.4283 62.5704 15.9947 63.3428 15.9947C64.1123 15.9947 64.5508 15.4244 64.5508 14.4444H64.5508Z" fill="white"/>
<path d="M66.4009 15.4243C66.4009 14.6138 67.0044 14.1465 68.0757 14.0801L69.2954 14.0098V13.6211C69.2954 13.1455 68.981 12.877 68.3736 12.877C67.8775 12.877 67.5337 13.0591 67.4351 13.3774H66.5747C66.6656 12.604 67.3931 12.1079 68.4146 12.1079C69.5435 12.1079 70.1802 12.6699 70.1802 13.6211V16.6978H69.3247V16.0649H69.2544C69.1117 16.2919 68.9113 16.477 68.6737 16.6012C68.4361 16.7254 68.1697 16.7843 67.9019 16.7719C67.7129 16.7916 67.5218 16.7714 67.341 16.7127C67.1603 16.654 66.9938 16.5581 66.8524 16.4311C66.711 16.3042 66.5977 16.149 66.52 15.9756C66.4422 15.8021 66.4017 15.6144 66.4009 15.4243ZM69.2954 15.0395V14.6631L68.1958 14.7334C67.5757 14.7749 67.2945 14.9858 67.2945 15.3828C67.2945 15.7881 67.646 16.0239 68.1295 16.0239C68.2711 16.0382 68.4142 16.0239 68.5502 15.9819C68.6862 15.9398 68.8123 15.8707 68.9211 15.7789C69.0299 15.6871 69.1191 15.5743 69.1834 15.4473C69.2477 15.3202 69.2858 15.1816 69.2954 15.0395Z" fill="white"/>
<path d="M71.3482 14.4444C71.3482 13.0215 72.0796 12.1201 73.2173 12.1201C73.4987 12.1072 73.778 12.1746 74.0226 12.3145C74.2671 12.4544 74.4667 12.661 74.5982 12.9101H74.6646V10.437H75.5533V16.6978H74.7017V15.9863H74.6314C74.4898 16.2338 74.2832 16.4378 74.0339 16.5763C73.7847 16.7148 73.5023 16.7825 73.2173 16.772C72.0718 16.772 71.3482 15.8706 71.3482 14.4444ZM72.2662 14.4444C72.2662 15.3994 72.7164 15.9741 73.4693 15.9741C74.2183 15.9741 74.6812 15.3911 74.6812 14.4483C74.6812 13.5098 74.2134 12.9185 73.4693 12.9185C72.7212 12.9185 72.2661 13.4971 72.2661 14.4444H72.2662Z" fill="white"/>
<path d="M79.23 14.4443C79.2017 14.1484 79.2356 13.8499 79.3294 13.5678C79.4232 13.2857 79.575 13.0264 79.7749 12.8064C79.9749 12.5864 80.2186 12.4107 80.4904 12.2904C80.7623 12.1701 81.0563 12.108 81.3536 12.108C81.6508 12.108 81.9448 12.1701 82.2167 12.2904C82.4885 12.4107 82.7322 12.5864 82.9322 12.8064C83.1321 13.0264 83.2839 13.2857 83.3777 13.5678C83.4715 13.8499 83.5054 14.1484 83.4771 14.4443C83.5059 14.7406 83.4725 15.0396 83.3789 15.3221C83.2853 15.6046 83.1336 15.8644 82.9336 16.0848C82.7336 16.3052 82.4897 16.4814 82.2176 16.6019C81.9455 16.7225 81.6512 16.7847 81.3536 16.7847C81.0559 16.7847 80.7616 16.7225 80.4895 16.6019C80.2173 16.4814 79.9735 16.3052 79.7735 16.0848C79.5735 15.8644 79.4218 15.6046 79.3282 15.3221C79.2346 15.0396 79.2012 14.7406 79.23 14.4443ZM82.563 14.4443C82.563 13.4683 82.1245 12.8975 81.355 12.8975C80.5826 12.8975 80.148 13.4683 80.148 14.4444C80.148 15.4282 80.5826 15.9946 81.355 15.9946C82.1245 15.9946 82.563 15.4243 82.563 14.4443Z" fill="white"/>
<path d="M84.6695 12.1948H85.5249V12.9101H85.5913C85.704 12.6532 85.894 12.4378 86.1349 12.294C86.3757 12.1502 86.6555 12.0852 86.9351 12.1079C87.1542 12.0914 87.3742 12.1244 87.5788 12.2045C87.7834 12.2846 87.9673 12.4097 88.117 12.5706C88.2667 12.7314 88.3783 12.9239 88.4435 13.1337C88.5087 13.3435 88.5258 13.5653 88.4937 13.7827V16.6977H87.605V14.0058C87.605 13.2822 87.2906 12.9223 86.6333 12.9223C86.4846 12.9154 86.3361 12.9407 86.198 12.9966C86.06 13.0524 85.9356 13.1374 85.8335 13.2458C85.7314 13.3542 85.6539 13.4834 85.6064 13.6245C85.5588 13.7656 85.5424 13.9154 85.5581 14.0635V16.6977H84.6695V12.1948Z" fill="white"/>
<path d="M93.5152 11.0737V12.2153H94.4908V12.9639H93.5152V15.2793C93.5152 15.751 93.7095 15.9575 94.1519 15.9575C94.2651 15.9572 94.3783 15.9503 94.4908 15.937V16.6772C94.3312 16.7058 94.1695 16.721 94.0074 16.7226C93.0191 16.7226 92.6255 16.375 92.6255 15.5068V12.9638H91.9107V12.2153H92.6255V11.0737H93.5152Z" fill="white"/>
<path d="M95.7046 10.437H96.5855V12.9185H96.6558C96.7739 12.6591 96.9691 12.4425 97.2148 12.2982C97.4605 12.1539 97.7448 12.0888 98.0288 12.1118C98.2467 12.1 98.4646 12.1364 98.6669 12.2184C98.8692 12.3004 99.0509 12.4261 99.199 12.5864C99.3471 12.7468 99.458 12.9378 99.5238 13.146C99.5896 13.3541 99.6086 13.5742 99.5796 13.7905V16.6978H98.69V14.0098C98.69 13.2905 98.355 12.9263 97.7271 12.9263C97.5744 12.9137 97.4207 12.9347 97.277 12.9878C97.1332 13.0408 97.0027 13.1247 96.8948 13.2334C96.7868 13.3421 96.7038 13.4732 96.6518 13.6173C96.5997 13.7614 96.5798 13.9152 96.5933 14.0679V16.6977H95.7047L95.7046 10.437Z" fill="white"/>
<path d="M104.761 15.4819C104.641 15.8935 104.379 16.2495 104.022 16.4876C103.666 16.7258 103.236 16.8309 102.81 16.7847C102.513 16.7925 102.219 16.7357 101.946 16.6182C101.674 16.5006 101.43 16.3252 101.232 16.1041C101.034 15.8829 100.887 15.6214 100.8 15.3376C100.713 15.0537 100.689 14.7544 100.73 14.4605C100.691 14.1656 100.715 13.8656 100.801 13.581C100.888 13.2963 101.034 13.0335 101.231 12.8105C101.428 12.5874 101.671 12.4092 101.942 12.288C102.214 12.1668 102.509 12.1054 102.806 12.1079C104.059 12.1079 104.815 12.9639 104.815 14.3779V14.688H101.635V14.7378C101.621 14.9031 101.642 15.0694 101.696 15.2261C101.75 15.3829 101.837 15.5266 101.95 15.6481C102.062 15.7695 102.2 15.866 102.352 15.9314C102.504 15.9968 102.669 16.0297 102.835 16.0278C103.047 16.0533 103.262 16.0151 103.453 15.9178C103.644 15.8206 103.802 15.6689 103.906 15.4819L104.761 15.4819ZM101.635 14.0308H103.91C103.921 13.8796 103.9 13.7278 103.849 13.5851C103.798 13.4424 103.718 13.3119 103.614 13.2021C103.509 13.0922 103.383 13.0054 103.243 12.9472C103.103 12.8891 102.953 12.8608 102.801 12.8643C102.648 12.8623 102.495 12.8912 102.353 12.9491C102.21 13.0071 102.081 13.0929 101.972 13.2017C101.864 13.3104 101.778 13.4397 101.72 13.5821C101.662 13.7245 101.633 13.8771 101.635 14.0308H101.635Z" fill="white"/>
</svg>
