<svg width="135" height="44" viewBox="0 0 135 44" fill="none" xmlns="http://www.w3.org/2000/svg">
<path d="M0 2C0 0.895431 0.895431 0 2 0H133C134.105 0 135 0.895431 135 2V42C135 43.1046 134.105 44 133 44H2C0.895428 44 0 43.1046 0 42V2Z" fill="black"/>
<path d="M47.4168 12.2442C47.4168 13.0822 47.1688 13.7492 46.6718 14.2472C46.1068 14.8382 45.3719 15.1342 44.4679 15.1342C43.6019 15.1342 42.8649 14.8342 42.2599 14.2342C41.6529 13.6332 41.351 12.8892 41.351 12.0003C41.351 11.1123 41.6529 10.3683 42.2599 9.76731C42.8649 9.16633 43.6019 8.86633 44.4679 8.86633C44.8969 8.86633 45.3089 8.95033 45.6988 9.11833C46.0898 9.28632 46.4028 9.50932 46.6378 9.78831L46.1098 10.3163C45.7128 9.84131 45.1659 9.60431 44.4679 9.60431C43.8359 9.60431 43.2899 9.82631 42.8289 10.2703C42.3679 10.7143 42.1379 11.2913 42.1379 12.0003C42.1379 12.7102 42.3679 13.2872 42.8289 13.7312C43.2899 14.1752 43.8359 14.3972 44.4679 14.3972C45.1379 14.3972 45.6958 14.1742 46.1438 13.7272C46.4338 13.4362 46.6018 13.0312 46.6458 12.5122H44.4679V11.7913H47.3748C47.4028 11.9483 47.4168 12.0983 47.4168 12.2442Z" fill="white"/>
<path d="M47.4168 12.2443H47.3168C47.3158 13.0633 47.0768 13.6982 46.6008 14.1762L46.5998 14.1772V14.1782C46.0529 14.7492 45.3509 15.0332 44.4679 15.0342C43.6249 15.0332 42.9189 14.7462 42.33 14.1632C41.742 13.5792 41.452 12.8663 41.451 12.0003C41.452 11.1343 41.742 10.4223 42.33 9.83833C42.9189 9.25535 43.6249 8.96735 44.4679 8.96635C44.8839 8.96635 45.2809 9.04735 45.6599 9.21035C46.0389 9.37334 46.3379 9.58734 46.5608 9.85233L46.6378 9.78833L46.5668 9.71734L46.0399 10.2453L46.1099 10.3163L46.1869 10.2523C45.7709 9.75334 45.1879 9.50234 44.4679 9.50434C43.8119 9.50334 43.2359 9.73733 42.7599 10.1983C42.278 10.6613 42.037 11.2703 42.038 12.0003C42.037 12.7313 42.278 13.3402 42.7599 13.8032C43.2359 14.2642 43.8119 14.4982 44.4679 14.4972C45.1599 14.4982 45.7499 14.2632 46.2139 13.7982C46.5238 13.4872 46.6998 13.0563 46.7458 12.5203L46.7558 12.4123H44.5679V11.8913H47.3748V11.7913L47.2768 11.8093C47.3038 11.9603 47.3168 12.1043 47.3168 12.2443H47.5168C47.5168 12.0923 47.5028 11.9353 47.4728 11.7733L47.4588 11.6913H44.3679V12.6123H46.6458V12.5123L46.5468 12.5033C46.5028 13.0063 46.3429 13.3852 46.0729 13.6562C45.6429 14.0842 45.1159 14.2962 44.4679 14.2972C43.8589 14.2962 43.3439 14.0872 42.8989 13.6592C42.4579 13.2332 42.239 12.6893 42.238 12.0003C42.239 11.3123 42.4579 10.7683 42.8989 10.3423C43.3439 9.91433 43.8589 9.70534 44.4679 9.70434C45.1439 9.70534 45.6539 9.92933 46.0339 10.3803L46.1039 10.4643L46.7078 9.85933L46.7728 9.79433L46.7138 9.72434C46.4678 9.43134 46.1409 9.19935 45.7389 9.02635C45.3359 8.85336 44.9099 8.76636 44.4679 8.76636C43.5779 8.76536 42.8109 9.07835 42.189 9.69634C41.565 10.3133 41.25 11.0893 41.251 12.0003C41.25 12.9113 41.565 13.6872 42.189 14.3052C42.8109 14.9232 43.5789 15.2352 44.4679 15.2342C45.3929 15.2352 46.1619 14.9282 46.7438 14.3162L46.6718 14.2472L46.7428 14.3172C47.2608 13.8002 47.5178 13.1003 47.5168 12.2443H47.4168Z" fill="white"/>
<path d="M52.0257 9.73835H49.2937V11.6403H51.7577V12.3613H49.2937V14.2632H52.0257V15.0002H48.5228V9.00037H52.0257V9.73835Z" fill="white"/>
<path d="M52.0257 9.73825V9.63825H49.1938V11.7402H51.6577V12.2612H49.1938V14.3631H51.9257V14.9001H48.6228V9.10026H51.9257V9.73825H52.0257V9.63825V9.73825H52.1257V9.00027V8.90027H48.4228V15.1001H52.1257V14.2631V14.1631H49.3938V12.4612H51.8577V11.6402V11.5402H49.3938V9.83824H52.1257V9.73825H52.0257Z" fill="white"/>
<path d="M55.2766 15.0002H54.5056V9.73835H52.8297V9.00037H56.9526V9.73835H55.2766V15.0002Z" fill="white"/>
<path d="M55.2766 15.0001V14.9001H54.6056V9.63825H52.9297V9.10026H56.8526V9.63825H55.1766V15.0001H55.2766V14.9001V15.0001H55.3766V9.83824H57.0526V9.00027V8.90027H52.7297V9.83824H54.4056V15.1001H55.3766V15.0001H55.2766Z" fill="white"/>
<path d="M59.9365 15.1001H60.8065V8.90027H59.9365H59.8365V15.1001H59.9365Z" fill="white"/>
<path d="M64.1264 15.0002H63.3544V9.73835H61.6794V9.00037H65.8023V9.73835H64.1264V15.0002Z" fill="white"/>
<path d="M64.1264 15.0001V14.9001H63.4544V9.63825H61.7795V9.10026H65.7024V9.63825H64.0264V15.0001H64.1264V14.9001V15.0001H64.2264V9.83824H65.9024V9.00027V8.90027H61.5795V9.83824H63.2544V15.1001H64.2264V15.0001H64.1264Z" fill="white"/>
<path d="M69.7772 13.7232C70.2212 14.1722 70.7642 14.3972 71.4072 14.3972C72.0492 14.3972 72.5932 14.1722 73.0372 13.7232C73.4812 13.2732 73.7041 12.6992 73.7041 12.0003C73.7041 11.3023 73.4812 10.7283 73.0372 10.2783C72.5932 9.82931 72.0492 9.60431 71.4072 9.60431C70.7642 9.60431 70.2212 9.82931 69.7772 10.2783C69.3333 10.7283 69.1113 11.3023 69.1113 12.0003C69.1113 12.6992 69.3333 13.2732 69.7772 13.7232ZM73.6072 14.2252C73.0172 14.8322 72.2842 15.1342 71.4072 15.1342C70.5302 15.1342 69.7962 14.8322 69.2083 14.2252C68.6183 13.6192 68.3243 12.8772 68.3243 12.0003C68.3243 11.1233 68.6183 10.3823 69.2083 9.77631C69.7962 9.16933 70.5302 8.86633 71.4072 8.86633C72.2792 8.86633 73.0102 9.17133 73.6031 9.78031C74.1951 10.3893 74.4911 11.1293 74.4911 12.0003C74.4911 12.8772 74.1961 13.6192 73.6072 14.2252Z" fill="white"/>
<path d="M69.7773 13.7232L69.7063 13.7932C70.1663 14.2612 70.7412 14.4982 71.4072 14.4972C72.0732 14.4982 72.6482 14.2612 73.1082 13.7932C73.5712 13.3252 73.8052 12.7203 73.8042 12.0003C73.8052 11.2813 73.5712 10.6763 73.1082 10.2083C72.6482 9.74033 72.0732 9.50334 71.4072 9.50434C70.7412 9.50334 70.1663 9.74033 69.7063 10.2083C69.2433 10.6763 69.0103 11.2813 69.0113 12.0003C69.0103 12.7203 69.2433 13.3252 69.7063 13.7932L69.7773 13.7232L69.8483 13.6522C69.4243 13.2212 69.2123 12.6783 69.2113 12.0003C69.2123 11.3233 69.4243 10.7803 69.8483 10.3483V10.3493C70.2763 9.91733 70.7872 9.70534 71.4072 9.70434C72.0262 9.70534 72.5382 9.91733 72.9652 10.3483V10.3493C73.3912 10.7803 73.6032 11.3233 73.6042 12.0003C73.6032 12.6783 73.3912 13.2212 72.9652 13.6522C72.5382 14.0842 72.0262 14.2962 71.4072 14.2972C70.7872 14.2962 70.2763 14.0842 69.8483 13.6522L69.7773 13.7232ZM73.6072 14.2252L73.5352 14.1552C72.9622 14.7432 72.2612 15.0332 71.4072 15.0342C70.5532 15.0332 69.8513 14.7432 69.2793 14.1552L69.2763 14.1532L69.2793 14.1552C68.7073 13.5662 68.4253 12.8553 68.4243 12.0003C68.4253 11.1463 68.7073 10.4353 69.2793 9.84633C69.8513 9.25835 70.5532 8.96735 71.4072 8.96635C72.2562 8.96735 72.9552 9.25935 73.5312 9.85033C74.1062 10.4423 74.3902 11.1513 74.3912 12.0003C74.3902 12.8553 74.1062 13.5662 73.5352 14.1552L73.6792 14.2952C74.2852 13.6722 74.5921 12.9003 74.5911 12.0003C74.5921 11.1063 74.2842 10.3363 73.6752 9.71034C73.0652 9.08335 72.3022 8.76536 71.4072 8.76636C70.5072 8.76536 69.7413 9.08135 69.1363 9.70634C68.5283 10.3293 68.2233 11.1013 68.2243 12.0003C68.2233 12.9003 68.5283 13.6722 69.1363 14.2952L69.1393 14.2982L69.1363 14.2952C69.7413 14.9202 70.5072 15.2352 71.4072 15.2342C72.3072 15.2352 73.0722 14.9202 73.6792 14.2952L73.6072 14.2252Z" fill="white"/>
<path d="M75.5731 15.0002V9.00037H76.5111L79.427 13.6682H79.46L79.427 12.5123V9.00037H80.199V15.0002H79.394L76.3431 10.1073H76.3101L76.3431 11.2633V15.0002H75.5731Z" fill="white"/>
<path d="M75.5731 15.0001H75.6731V9.10026H76.4561L79.372 13.7681H79.563L79.527 12.5102V9.10026H80.099V14.9001H79.45L76.3991 10.0072H76.3101H76.2071L76.2431 11.2652V14.9001H75.5731V15.0001H75.6731H75.5731V15.1001H76.4431V11.2622L76.4101 10.1042L76.3101 10.1072V10.2072H76.3431V10.1072L76.2581 10.1602L79.339 15.1001H80.299V8.90027H79.427H79.327V12.5132L79.36 13.6711L79.46 13.6681V13.5682H79.427V13.6681L79.512 13.6152L76.5671 8.90027H75.5731H75.4731V15.1001H75.5731V15.0001Z" fill="white"/>
<path d="M106.933 32.0008H108.799V19.4991H106.933V32.0008ZM123.74 24.002L121.601 29.4218H121.537L119.317 24.002H117.307L120.636 31.5778L118.738 35.7907H120.685L125.815 24.002H123.74ZM113.158 30.5798C112.546 30.5798 111.694 30.2748 111.694 29.5188C111.694 28.5539 112.756 28.1839 113.672 28.1839C114.493 28.1839 114.878 28.3609 115.377 28.6019C115.232 29.7598 114.235 30.5798 113.158 30.5798ZM113.383 23.729C112.032 23.729 110.633 24.324 110.054 25.6429L111.71 26.3349C112.064 25.6429 112.723 25.4179 113.415 25.4179C114.38 25.4179 115.361 25.9969 115.377 27.0259V27.1549C115.039 26.9619 114.316 26.6719 113.431 26.6719C111.646 26.6719 109.828 27.6529 109.828 29.4868C109.828 31.1588 111.292 32.2368 112.932 32.2368C114.187 32.2368 114.878 31.6738 115.313 31.0148H115.377V31.9798H117.178V27.1869C117.178 24.9669 115.522 23.729 113.383 23.729ZM101.851 25.5239H99.1975V21.239H101.851C103.246 21.239 104.038 22.394 104.038 23.382C104.038 24.351 103.246 25.5239 101.851 25.5239ZM101.803 19.4991H97.3326V32.0008H99.1975V27.2639H101.803C103.871 27.2639 105.904 25.7669 105.904 23.382C105.904 20.996 103.871 19.4991 101.803 19.4991ZM77.4221 30.5828C76.1341 30.5828 75.0541 29.5028 75.0541 28.0209C75.0541 26.5229 76.1341 25.4279 77.4221 25.4279C78.695 25.4279 79.694 26.5229 79.694 28.0209C79.694 29.5028 78.695 30.5828 77.4221 30.5828ZM79.565 24.703H79.501C79.082 24.203 78.276 23.752 77.2611 23.752C75.1351 23.752 73.1852 25.6209 73.1852 28.0209C73.1852 30.4058 75.1351 32.2578 77.2611 32.2578C78.276 32.2578 79.082 31.8068 79.501 31.2918H79.565V31.9038C79.565 33.5307 78.695 34.4007 77.2931 34.4007C76.1501 34.4007 75.4411 33.5787 75.1511 32.8868L73.5242 33.5627C73.9911 34.6907 75.2311 36.0767 77.2931 36.0767C79.485 36.0767 81.337 34.7877 81.337 31.6458V24.01H79.565V24.703ZM82.6259 32.0008H84.4949V19.4991H82.6259V32.0008ZM87.2498 27.8759C87.2008 26.2329 88.5228 25.3949 89.4728 25.3949C90.2147 25.3949 90.8427 25.7659 91.0517 26.2979L87.2498 27.8759ZM93.0497 26.4589C92.6957 25.5079 91.6157 23.752 89.4088 23.752C87.2178 23.752 85.3969 25.4759 85.3969 28.0049C85.3969 30.3898 87.2008 32.2578 89.6178 32.2578C91.5677 32.2578 92.6957 31.0658 93.1627 30.3728L91.7127 29.4068C91.2297 30.1158 90.5687 30.5828 89.6178 30.5828C88.6668 30.5828 87.9908 30.1478 87.5558 29.2938L93.2427 26.9419L93.0497 26.4589ZM47.7418 25.0569V26.8609H52.0597C51.9307 27.8759 51.5927 28.6169 51.0767 29.1328C50.4487 29.7608 49.4658 30.4538 47.7418 30.4538C45.0839 30.4538 43.0059 28.3109 43.0059 25.6529C43.0059 22.995 45.0839 20.8521 47.7418 20.8521C49.1758 20.8521 50.2227 21.416 50.9967 22.141L52.2687 20.8681C51.1897 19.8371 49.7558 19.0481 47.7418 19.0481C44.1009 19.0481 41.04 22.012 41.04 25.6529C41.04 29.2938 44.1009 32.2578 47.7418 32.2578C49.7078 32.2578 51.1897 31.6138 52.3497 30.4058C53.5417 29.2128 53.9127 27.5379 53.9127 26.1849C53.9127 25.7659 53.8797 25.3789 53.8157 25.0569H47.7418ZM58.8205 30.5828C57.5316 30.5828 56.4206 29.5198 56.4206 28.0049C56.4206 26.4749 57.5316 25.4279 58.8205 25.4279C60.1095 25.4279 61.2205 26.4749 61.2205 28.0049C61.2205 29.5198 60.1095 30.5828 58.8205 30.5828ZM58.8205 23.752C56.4686 23.752 54.5516 25.5399 54.5516 28.0049C54.5516 30.4538 56.4686 32.2578 58.8205 32.2578C61.1725 32.2578 63.0894 30.4538 63.0894 28.0049C63.0894 25.5399 61.1725 23.752 58.8205 23.752ZM68.1333 30.5828C66.8453 30.5828 65.7334 29.5198 65.7334 28.0049C65.7334 26.4749 66.8453 25.4279 68.1333 25.4279C69.4223 25.4279 70.5342 26.4749 70.5342 28.0049C70.5342 29.5198 69.4223 30.5828 68.1333 30.5828ZM68.1333 23.752C65.7814 23.752 63.8644 25.5399 63.8644 28.0049C63.8644 30.4538 65.7814 32.2578 68.1333 32.2578C70.4862 32.2578 72.4032 30.4538 72.4032 28.0049C72.4032 25.5399 70.4862 23.752 68.1333 23.752Z" fill="white"/>
<path fill-rule="evenodd" clip-rule="evenodd" d="M10.5087 34.3897L10.4347 34.3187C10.1437 34.0107 9.97174 33.5327 9.97174 32.9137V33.0587V10.9433C9.97174 10.9423 9.97174 10.9403 9.97174 10.9383V11.0903C9.97174 10.4203 10.1727 9.9143 10.5077 9.6123L22.8974 22.001L10.5087 34.3897ZM9.97174 10.9373C9.97174 10.8823 9.97374 10.8283 9.97574 10.7763C9.97374 10.8283 9.97174 10.8823 9.97174 10.9373Z" fill="url(#paint0_linear)"/>
<path fill-rule="evenodd" clip-rule="evenodd" d="M27.0263 26.2789L27.1203 26.2249L32.0132 23.445C32.4802 23.18 32.7912 22.859 32.9462 22.518C32.7912 22.859 32.4802 23.18 32.0132 23.446L27.1203 26.2259L27.0263 26.2789ZM27.0273 26.1319L22.8974 22.001L27.0273 17.8711L32.0132 20.704C32.6472 21.063 33.0022 21.527 33.0612 22.001C33.0612 22.001 33.0612 22.002 33.0612 22.003C33.0022 22.475 32.6472 22.939 32.0132 23.299L27.0273 26.1319Z" fill="url(#paint1_linear)"/>
<path fill-rule="evenodd" clip-rule="evenodd" d="M11.3917 34.8617C11.0457 34.8617 10.7447 34.7487 10.5087 34.5367V34.5357C10.7447 34.7487 11.0467 34.8617 11.3927 34.8617C11.4227 34.8617 11.4537 34.8607 11.4847 34.8587C11.4537 34.8607 11.4227 34.8617 11.3917 34.8617ZM11.3927 34.7147C11.0467 34.7157 10.7447 34.6027 10.5087 34.3897L22.8974 22.001L27.0273 26.1319L12.5127 34.3797C12.1117 34.6077 11.7307 34.7147 11.3927 34.7147Z" fill="url(#paint2_linear)"/>
<path fill-rule="evenodd" clip-rule="evenodd" d="M22.8974 22.001L10.5078 9.61228C10.7437 9.40029 11.0447 9.28729 11.3907 9.28729C11.7297 9.28729 12.1107 9.39529 12.5127 9.62428L27.0273 17.8711L22.8974 22.001ZM27.1203 17.7781L12.5127 9.47829C12.1107 9.24929 11.7297 9.1413 11.3907 9.1413C11.3897 9.1413 11.3877 9.1413 11.3867 9.1413C11.3877 9.1413 11.3897 9.1413 11.3917 9.1413C11.7307 9.1413 12.1107 9.24929 12.5127 9.47729L27.1203 17.7771V17.7781Z" fill="url(#paint3_linear)"/>
<path fill-rule="evenodd" clip-rule="evenodd" d="M11.4847 34.8587C11.7987 34.8407 12.1467 34.7327 12.5127 34.5257L27.0263 26.2789L12.5127 34.5257C12.1467 34.7337 11.7987 34.8417 11.4847 34.8587Z" fill="black"/>
<path fill-rule="evenodd" clip-rule="evenodd" d="M27.0263 26.2789L27.1203 26.2249L27.0263 26.2789Z" fill="url(#paint4_linear)"/>
<path fill-rule="evenodd" clip-rule="evenodd" d="M11.3927 34.8617C11.0467 34.8617 10.7447 34.7487 10.5087 34.5357V34.5367C10.5077 34.5357 10.5067 34.5347 10.5057 34.5337L10.4407 34.4707C10.4387 34.4687 10.4367 34.4667 10.4347 34.4647L10.5087 34.3897C10.7447 34.6027 11.0467 34.7157 11.3927 34.7147C11.7307 34.7147 12.1117 34.6077 12.5127 34.3797L27.0273 26.1319L27.1203 26.2249L27.0263 26.2789L12.5127 34.5257C12.1467 34.7327 11.7987 34.8407 11.4847 34.8587C11.4537 34.8607 11.4227 34.8617 11.3927 34.8617Z" fill="url(#paint5_linear)"/>
<path fill-rule="evenodd" clip-rule="evenodd" d="M10.4347 34.4647C10.1437 34.1567 9.97174 33.6787 9.97174 33.0597V33.0587C9.97174 33.6787 10.1437 34.1567 10.4347 34.4637V34.4647Z" fill="black"/>
<path fill-rule="evenodd" clip-rule="evenodd" d="M10.4347 34.4647V34.4637L10.5087 34.3897L10.4347 34.4647Z" fill="url(#paint6_linear)"/>
<path fill-rule="evenodd" clip-rule="evenodd" d="M32.9462 22.5179C33.0232 22.3499 33.0612 22.1759 33.0612 22.003C33.0612 22.002 33.0622 22.002 33.0622 22.002C33.0622 22.1759 33.0232 22.3489 32.9462 22.5179Z" fill="black"/>
<path fill-rule="evenodd" clip-rule="evenodd" d="M27.1203 26.2249L27.0273 26.1319L32.0132 23.299C32.6472 22.939 33.0022 22.475 33.0612 22.003C33.0612 22.176 33.0232 22.35 32.9462 22.518C32.7912 22.859 32.4802 23.18 32.0132 23.445L27.1203 26.2249Z" fill="url(#paint7_linear)"/>
<path d="M33.0622 22.001H33.0612C33.0612 21.478 32.7122 20.955 32.0132 20.558L27.1203 17.7781V17.7771L32.0132 20.558C32.7122 20.955 33.0622 21.478 33.0622 22.001Z" fill="#404040"/>
<path fill-rule="evenodd" clip-rule="evenodd" d="M33.0612 22.001C33.0022 21.527 32.6472 21.063 32.0132 20.704L27.0273 17.8711L27.1203 17.7781L32.0132 20.558C32.7122 20.955 33.0612 21.478 33.0612 22.001Z" fill="url(#paint8_linear)"/>
<path d="M9.97675 10.7653C10.0347 9.73828 10.5927 9.1453 11.3827 9.1413C11.0407 9.1433 10.7427 9.25529 10.5087 9.46629L10.5057 9.46929C10.4817 9.49129 10.4577 9.51429 10.4347 9.53829C10.1727 9.81628 10.0067 10.2323 9.97675 10.7653Z" fill="#404040"/>
<path fill-rule="evenodd" clip-rule="evenodd" d="M9.97174 11.0902V10.9442C9.97174 10.9422 9.97174 10.9402 9.97174 10.9382V10.9372C9.97174 10.8822 9.97374 10.8282 9.97574 10.7762C9.97674 10.7752 9.97674 10.7742 9.97674 10.7732C9.97674 10.7732 9.97674 10.7722 9.97674 10.7712C9.97674 10.7702 9.97674 10.7682 9.97674 10.7662V10.7652C10.0067 10.2323 10.1727 9.81626 10.4347 9.53827L10.5077 9.61227C10.1727 9.91426 9.97174 10.4202 9.97174 11.0902Z" fill="url(#paint9_linear)"/>
<path fill-rule="evenodd" clip-rule="evenodd" d="M27.0273 17.8711L12.5127 9.62428C12.1107 9.39529 11.7297 9.28729 11.3907 9.28729C11.0447 9.28729 10.7437 9.40029 10.5077 9.61228L10.4347 9.53829C10.4577 9.51429 10.4817 9.49129 10.5057 9.46929C10.5067 9.46829 10.5077 9.46729 10.5087 9.46629C10.7427 9.25529 11.0407 9.1433 11.3827 9.1413H11.3907C11.7297 9.1413 12.1107 9.24929 12.5127 9.47829L27.1203 17.7781L27.0273 17.8711Z" fill="url(#paint10_linear)"/>
<defs>
<linearGradient id="paint0_linear" x1="17.8945" y1="10.71" x2="7.21993" y2="0.0353815" gradientUnits="userSpaceOnUse">
<stop stop-color="#00A0FF"/>
<stop offset="1" stop-color="#00E2FF"/>
</linearGradient>
<linearGradient id="paint1_linear" x1="33.8336" y1="22.0014" x2="9.63716" y2="22.0014" gradientUnits="userSpaceOnUse">
<stop stop-color="#FFDF00"/>
<stop offset="1" stop-color="#FF9C00"/>
</linearGradient>
<linearGradient id="paint2_linear" x1="24.8354" y1="25.9247" x2="6.65246" y2="7.66691" gradientUnits="userSpaceOnUse">
<stop stop-color="#FF3A44"/>
<stop offset="1" stop-color="#C31162"/>
</linearGradient>
<linearGradient id="paint3_linear" x1="7.29713" y1="7.54491" x2="15.423" y2="-0.580917" gradientUnits="userSpaceOnUse">
<stop stop-color="#31A070"/>
<stop offset="1" stop-color="#00EF75"/>
</linearGradient>
<linearGradient id="paint4_linear" x1="27.7088" y1="26.0223" x2="25.4344" y2="26.0223" gradientUnits="userSpaceOnUse">
<stop stop-color="#CCB300"/>
<stop offset="1" stop-color="#CC7C00"/>
</linearGradient>
<linearGradient id="paint5_linear" x1="24.8264" y1="28.7995" x2="10.3328" y2="14.3058" gradientUnits="userSpaceOnUse">
<stop stop-color="#CC2D36"/>
<stop offset="1" stop-color="#9C0E4D"/>
</linearGradient>
<linearGradient id="paint6_linear" x1="11.534" y1="33.6674" x2="9.82727" y2="31.9834" gradientUnits="userSpaceOnUse">
<stop stop-color="#DF333B"/>
<stop offset="1" stop-color="#AA0E56"/>
</linearGradient>
<linearGradient id="paint7_linear" x1="33.8336" y1="22.0014" x2="9.63718" y2="22.0014" gradientUnits="userSpaceOnUse">
<stop stop-color="#DFC400"/>
<stop offset="1" stop-color="#DF8900"/>
</linearGradient>
<linearGradient id="paint8_linear" x1="33.8336" y1="22.0014" x2="9.63718" y2="22.0014" gradientUnits="userSpaceOnUse">
<stop stop-color="#FFE83F"/>
<stop offset="1" stop-color="#FFB53F"/>
</linearGradient>
<linearGradient id="paint9_linear" x1="12.7604" y1="10.7268" x2="3.29442" y2="5.87799" gradientUnits="userSpaceOnUse">
<stop stop-color="#3FB8FF"/>
<stop offset="1" stop-color="#3FE9FF"/>
</linearGradient>
<linearGradient id="paint10_linear" x1="7.2971" y1="10.4049" x2="13.7691" y2="3.93296" gradientUnits="userSpaceOnUse">
<stop stop-color="#64B895"/>
<stop offset="1" stop-color="#3FF497"/>
</linearGradient>
</defs>
</svg>
